<svg width="104" height="159" viewBox="0 0 104 159" fill="none" xmlns="http://www.w3.org/2000/svg">
<rect x="24.7775" y="89.6182" width="7.49843" height="9.06952" fill="#6C6402"/>
<rect x="17.2789" y="89.6182" width="7.49843" height="9.06952" fill="#6C6402"/>
<rect x="24.7775" y="98.6877" width="7.49843" height="9.06952" fill="#6C6402"/>
<rect x="24.7775" y="107.757" width="7.49843" height="9.06952" fill="#6C6402"/>
<rect x="24.7775" y="115.013" width="7.49843" height="9.06952" fill="#6C6402"/>
<rect x="24.7775" y="124.082" width="7.49843" height="9.06952" fill="#6C6402"/>
<rect x="24.7775" y="131.338" width="7.49843" height="9.06952" fill="#6C6402"/>
<rect x="22.9028" y="136.78" width="7.49843" height="9.06952" fill="#6C6402"/>
<rect x="15.4044" y="142.221" width="7.49843" height="9.06952" fill="#6C6402"/>
<rect x="11.6552" y="138.594" width="7.49843" height="9.06952" fill="#6C6402"/>
<rect x="11.6552" y="89.6182" width="7.49843" height="48.9754" fill="#6C6402"/>
<rect x="15.4044" y="95.0599" width="11.2476" height="48.9754" fill="#BB9E06"/>
<rect width="7.82445" height="9.06952" transform="matrix(-1 0 0 1 83.1349 89.6182)" fill="#6C6402"/>
<rect width="7.82445" height="9.06952" transform="matrix(-1 0 0 1 90.9594 89.6182)" fill="#6C6402"/>
<rect width="7.82445" height="9.06952" transform="matrix(-1 0 0 1 83.1349 98.6877)" fill="#6C6402"/>
<rect width="7.82445" height="9.06952" transform="matrix(-1 0 0 1 83.1349 107.757)" fill="#6C6402"/>
<rect width="7.82445" height="9.06952" transform="matrix(-1 0 0 1 83.1349 115.013)" fill="#6C6402"/>
<rect width="7.82445" height="9.06952" transform="matrix(-1 0 0 1 83.1349 124.082)" fill="#6C6402"/>
<rect width="7.82445" height="9.06952" transform="matrix(-1 0 0 1 83.1349 131.338)" fill="#6C6402"/>
<rect width="7.82445" height="9.06952" transform="matrix(-1 0 0 1 85.0909 136.78)" fill="#6C6402"/>
<rect width="7.82445" height="9.06952" transform="matrix(-1 0 0 1 92.9154 142.221)" fill="#6C6402"/>
<rect width="7.82445" height="9.06952" transform="matrix(-1 0 0 1 96.8276 138.594)" fill="#6C6402"/>
<rect width="7.82445" height="48.9754" transform="matrix(-1 0 0 1 96.8276 89.6182)" fill="#6C6402"/>
<rect width="11.7367" height="48.9754" transform="matrix(-1 0 0 1 92.9154 95.0599)" fill="#BB9E06"/>
<rect x="60.7863" y="93.4727" width="13.1793" height="9.10101" fill="#CC7F9C"/>
<rect x="53.2552" y="97.1131" width="9.41379" height="9.10101" fill="#CC7F9C"/>
<rect x="43.8414" y="97.1131" width="9.41379" height="9.10101" fill="#CC7F9C"/>
<rect x="34.4276" y="97.1131" width="9.41379" height="9.10101" fill="#CC7F9C"/>
<rect x="32.5449" y="95.2929" width="9.41379" height="9.10101" fill="#CC7F9C"/>
<rect x="73.9656" y="124.416" width="9.41379" height="9.10101" fill="#CC7F9C"/>
<rect x="26.8966" y="95.2929" width="9.41379" height="9.10101" fill="#CC7F9C"/>
<rect x="26.8966" y="104.394" width="9.41379" height="9.10101" fill="#CC7F9C"/>
<rect x="26.8966" y="113.495" width="9.41379" height="9.10101" fill="#CC7F9C"/>
<rect x="34.4276" y="98.9333" width="41.4207" height="50.9657" fill="#DB8AA9"/>
<rect x="26.8966" y="122.596" width="9.41379" height="9.10101" fill="#CC7F9C"/>
<rect x="26.8966" y="131.697" width="9.41379" height="9.10101" fill="#CC7F9C"/>
<rect x="26.8966" y="140.798" width="9.41379" height="9.10101" fill="#CC7F9C"/>
<rect x="26.8966" y="149.899" width="9.41379" height="9.10101" fill="#CC7F9C"/>
<rect x="32.5449" y="144.438" width="9.41379" height="9.10101" fill="#CC7F9C"/>
<rect x="41.9586" y="138.978" width="9.41379" height="10.9212" fill="#CC7F9C"/>
<rect x="51.3724" y="138.978" width="9.41379" height="10.9212" fill="#CC7F9C"/>
<rect x="58.9036" y="144.438" width="9.41379" height="9.10101" fill="#CC7F9C"/>
<rect x="66.4346" y="149.899" width="9.4138" height="9.10101" fill="#CC7F9C"/>
<rect x="72.0828" y="149.899" width="9.41379" height="9.10101" fill="#CC7F9C"/>
<rect x="73.9656" y="142.618" width="9.41379" height="9.10101" fill="#CC7F9C"/>
<rect x="73.9656" y="133.517" width="9.41379" height="9.10101" fill="#CC7F9C"/>
<rect x="73.9656" y="124.416" width="9.41379" height="9.10101" fill="#CC7F9C"/>
<rect x="73.9656" y="115.315" width="9.41379" height="9.10101" fill="#CC7F9C"/>
<rect x="73.9656" y="106.214" width="9.41379" height="9.10101" fill="#CC7F9C"/>
<rect x="73.9656" y="97.1131" width="9.41379" height="9.10101" fill="#CC7F9C"/>
<rect width="56.7273" height="62.1379" transform="matrix(-1 0 0 1 79.4182 23.7586)" fill="#F2D345"/>
<rect width="5.67273" height="5.48276" transform="matrix(-1 0 0 1 68.0728 73.1035)" fill="#FFEC8C"/>
<rect x="35.9272" y="73.1035" width="5.67273" height="5.48276" fill="#FFEC8C"/>
<rect width="5.67273" height="5.48276" transform="matrix(-1 0 0 1 68.0728 29.2414)" fill="#FFEC8C"/>
<rect x="35.9272" y="29.2414" width="5.67273" height="5.48276" fill="#FFEC8C"/>
<rect x="75.6364" y="65.7931" width="15.1273" height="18.2759" fill="#FFE871"/>
<rect x="64.2909" y="78.5862" width="15.1273" height="18.2759" fill="#FFE871"/>
<rect x="13.2363" y="67.6207" width="13.2364" height="9.13793" fill="#FFE871"/>
<rect x="15.1273" y="74.931" width="13.2364" height="9.13792" fill="#FFE871"/>
<rect x="15.1273" y="74.931" width="13.2364" height="9.13792" fill="#FFE871"/>
<rect x="30.2545" y="82.2414" width="13.2364" height="9.13793" fill="#FFE871"/>
<rect x="41.6" y="85.8965" width="30.2545" height="9.13793" fill="#FFE871"/>
<rect x="41.6" y="7.31033" width="13.2364" height="9.13793" fill="#FFE871"/>
<rect x="51.0546" y="7.31033" width="13.2364" height="9.13793" fill="#FFE871"/>
<rect x="64.2909" y="18.2758" width="13.2364" height="9.13793" fill="#FFE871"/>
<rect x="75.6364" y="25.5862" width="13.2364" height="9.13793" fill="#FFE871"/>
<rect x="20.8" y="18.2758" width="13.2364" height="9.13793" fill="#FFE871"/>
<rect x="15.1273" y="25.5862" width="13.2364" height="9.13793" fill="#FFE871"/>
<rect x="39.7091" width="15.1273" height="9.13793" fill="#B8871C"/>
<rect x="39.7091" width="15.1273" height="9.13793" fill="#B8871C"/>
<rect x="32.1455" y="5.48276" width="9.45454" height="9.13793" fill="#B8871C"/>
<rect x="32.1455" y="20.1035" width="9.45454" height="5.48276" fill="#B8871C"/>
<rect x="39.7091" y="16.4483" width="15.1273" height="5.48276" fill="#B8871C"/>
<rect x="26.4728" y="25.5862" width="9.45455" height="5.48276" fill="#B8871C"/>
<rect x="22.6909" y="31.069" width="9.45455" height="5.48276" fill="#B8871C"/>
<rect x="17.0182" y="34.7241" width="9.45454" height="5.48276" fill="#B8871C"/>
<rect x="17.0182" y="62.1379" width="9.45454" height="5.48276" fill="#B8871C"/>
<rect x="20.8" y="67.6207" width="9.45455" height="5.48276" fill="#B8871C"/>
<rect x="24.5818" y="73.1035" width="9.45455" height="5.48276" fill="#B8871C"/>
<rect x="28.3636" y="78.5862" width="9.45454" height="5.48276" fill="#B8871C"/>
<rect x="34.0364" y="82.2414" width="9.45454" height="5.48276" fill="#B8871C"/>
<path d="M37.8182 85.8965H56.7273V91.3793H37.8182V85.8965Z" fill="#B8871C"/>
<rect x="17.0182" y="40.2069" width="5.67273" height="5.48276" fill="#B8871C"/>
<rect x="17.0182" y="45.6897" width="5.67273" height="5.48276" fill="#B8871C"/>
<rect x="17.0182" y="51.1724" width="5.67273" height="5.48276" fill="#B8871C"/>
<rect x="17.0182" y="56.6552" width="5.67273" height="5.48276" fill="#B8871C"/>
<rect width="9.45454" height="5.48276" transform="matrix(-1 0 0 1 71.8545 20.1035)" fill="#B8871C"/>
<rect width="9.45454" height="5.48276" transform="matrix(-1 0 0 1 64.2909 16.4483)" fill="#B8871C"/>
<rect width="9.45454" height="5.48276" transform="matrix(-1 0 0 1 77.5272 25.5862)" fill="#B8871C"/>
<rect width="9.45454" height="5.48276" transform="matrix(-1 0 0 1 81.3091 31.069)" fill="#B8871C"/>
<rect width="9.45454" height="5.48276" transform="matrix(-1 0 0 1 86.9818 34.7241)" fill="#B8871C"/>
<rect width="9.45454" height="5.48276" transform="matrix(-1 0 0 1 86.9818 62.1379)" fill="#B8871C"/>
<rect width="9.45454" height="5.48276" transform="matrix(-1 0 0 1 83.2 67.6207)" fill="#B8871C"/>
<rect width="9.45454" height="5.48276" transform="matrix(-1 0 0 1 79.4182 73.1035)" fill="#B8871C"/>
<rect width="9.45454" height="5.48276" transform="matrix(-1 0 0 1 75.6364 78.5862)" fill="#B8871C"/>
<rect width="9.45455" height="5.48276" transform="matrix(-1 0 0 1 69.9636 82.2414)" fill="#B8871C"/>
<path d="M66.1818 85.8965H56.7272V91.3793H66.1818V85.8965Z" fill="#B8871C"/>
<rect width="5.67273" height="5.48276" transform="matrix(-1 0 0 1 86.9818 40.2069)" fill="#B8871C"/>
<rect width="5.67273" height="5.48276" transform="matrix(-1 0 0 1 86.9818 45.6897)" fill="#B8871C"/>
<rect width="5.67273" height="5.48276" transform="matrix(-1 0 0 1 86.9818 51.1724)" fill="#B8871C"/>
<rect width="5.67273" height="5.48276" transform="matrix(-1 0 0 1 86.9818 56.6552)" fill="#B8871C"/>
<rect x="22.6909" y="9.13794" width="9.45455" height="9.13793" fill="#B8871C"/>
<rect x="17.0182" y="14.6207" width="9.45454" height="9.13793" fill="#B8871C"/>
<rect x="9.45459" y="20.1035" width="9.45455" height="9.13793" fill="#B8871C"/>
<rect x="5.67273" y="27.4138" width="9.45455" height="9.13793" fill="#B8871C"/>
<rect x="5.67273" y="32.8965" width="9.45455" height="9.13793" fill="#B8871C"/>
<rect y="40.2069" width="9.45455" height="9.13793" fill="#B8871C"/>
<rect y="49.3448" width="9.45455" height="9.13793" fill="#B8871C"/>
<rect y="58.4828" width="9.45455" height="9.13793" fill="#B8871C"/>
<rect y="62.1379" width="9.45455" height="9.13793" fill="#B8871C"/>
<rect x="5.67273" y="71.2759" width="9.45455" height="9.13793" fill="#B8871C"/>
<rect x="11.3455" y="80.4138" width="9.45455" height="9.13793" fill="#B8871C"/>
<rect x="18.9091" y="84.069" width="9.45455" height="9.13793" fill="#B8871C"/>
<rect x="22.6909" y="87.7241" width="9.45455" height="9.13793" fill="#B8871C"/>
<rect x="30.2545" y="93.2069" width="9.45455" height="9.13793" fill="#B8871C"/>
<rect x="39.7091" y="96.8621" width="15.1273" height="9.13793" fill="#B8871C"/>
<rect width="9.45454" height="9.13793" transform="matrix(-1 0 0 1 64.2909 0)" fill="#B8871C"/>
<rect width="9.45454" height="9.13793" transform="matrix(-1 0 0 1 71.8545 5.48276)" fill="#B8871C"/>
<rect width="9.45454" height="9.13793" transform="matrix(-1 0 0 1 81.3091 9.13794)" fill="#B8871C"/>
<rect width="9.45454" height="9.13793" transform="matrix(-1 0 0 1 86.9818 14.6207)" fill="#B8871C"/>
<rect width="9.45454" height="9.13793" transform="matrix(-1 0 0 1 94.5454 20.1035)" fill="#B8871C"/>
<rect width="9.45454" height="9.13793" transform="matrix(-1 0 0 1 98.3273 27.4138)" fill="#B8871C"/>
<rect width="9.45454" height="9.13793" transform="matrix(-1 0 0 1 98.3273 32.8965)" fill="#B8871C"/>
<rect width="9.45454" height="9.13793" transform="matrix(-1 0 0 1 104 40.2069)" fill="#B8871C"/>
<rect width="9.45454" height="9.13793" transform="matrix(-1 0 0 1 104 49.3448)" fill="#B8871C"/>
<rect width="9.45454" height="9.13793" transform="matrix(-1 0 0 1 104 58.4828)" fill="#B8871C"/>
<rect width="9.45454" height="9.13793" transform="matrix(-1 0 0 1 104 62.1379)" fill="#B8871C"/>
<rect width="9.45454" height="9.13793" transform="matrix(-1 0 0 1 98.3273 71.2759)" fill="#B8871C"/>
<rect width="9.45455" height="9.13793" transform="matrix(-1 0 0 1 92.6545 80.4138)" fill="#B8871C"/>
<rect width="9.45455" height="9.13793" transform="matrix(-1 0 0 1 85.0909 84.069)" fill="#B8871C"/>
<rect width="9.45454" height="9.13793" transform="matrix(-1 0 0 1 81.3091 87.7241)" fill="#B8871C"/>
<rect width="9.45454" height="9.13793" transform="matrix(-1 0 0 1 73.7455 93.2069)" fill="#B8871C"/>
<rect width="9.45454" height="9.13793" transform="matrix(-1 0 0 1 64.2909 96.8621)" fill="#B8871C"/>
<rect x="41.6" y="5.48276" width="13.2364" height="9.13793" fill="#F2D345"/>
<rect x="41.6" y="5.48276" width="13.2364" height="9.13793" fill="#F2D345"/>
<rect x="35.9272" y="10.9655" width="5.67273" height="9.13793" fill="#F2D345"/>
<rect x="35.9272" y="23.7586" width="5.67273" height="5.48276" fill="#F2D345"/>
<rect x="41.6" y="21.931" width="13.2364" height="3.65517" fill="#F2D345"/>
<rect x="30.2545" y="29.2414" width="9.45455" height="3.65517" fill="#F2D345"/>
<rect x="26.4728" y="32.8965" width="9.45455" height="3.65517" fill="#F2D345"/>
<rect x="20.8" y="36.5517" width="9.45455" height="5.48276" fill="#F2D345"/>
<rect x="20.8" y="62.1379" width="9.45455" height="5.48276" fill="#F2D345"/>
<rect x="24.5818" y="69.4483" width="5.67273" height="3.65517" fill="#F2D345"/>
<rect x="28.3636" y="73.1035" width="9.45454" height="5.48276" fill="#F2D345"/>
<rect x="32.1455" y="78.5862" width="9.45454" height="3.65517" fill="#F2D345"/>
<rect x="37.8182" y="80.4138" width="5.67273" height="5.48276" fill="#F2D345"/>
<path d="M41.6 84.069H56.7272V87.7241H41.6V84.069Z" fill="#F2D345"/>
<rect x="20.8" y="42.0345" width="5.67273" height="5.48276" fill="#F2D345"/>
<rect x="20.8" y="47.5172" width="5.67273" height="5.48276" fill="#F2D345"/>
<rect x="20.8" y="53" width="5.67273" height="3.65517" fill="#F2D345"/>
<rect x="20.8" y="56.6552" width="5.67273" height="5.48276" fill="#F2D345"/>
<rect width="5.67273" height="5.48276" transform="matrix(-1 0 0 1 68.0728 23.7586)" fill="#F2D345"/>
<rect width="7.56364" height="3.65517" transform="matrix(-1 0 0 1 62.4 21.931)" fill="#F2D345"/>
<rect width="9.45454" height="3.65517" transform="matrix(-1 0 0 1 73.7455 29.2414)" fill="#F2D345"/>
<rect width="9.45454" height="3.65517" transform="matrix(-1 0 0 1 77.5272 32.8965)" fill="#F2D345"/>
<rect width="9.45454" height="5.48276" transform="matrix(-1 0 0 1 83.2 36.5517)" fill="#F2D345"/>
<rect width="9.45454" height="5.48276" transform="matrix(-1 0 0 1 83.2 62.1379)" fill="#F2D345"/>
<rect width="5.67273" height="5.48276" transform="matrix(-1 0 0 1 79.4182 67.6207)" fill="#F2D345"/>
<rect width="9.45454" height="5.48276" transform="matrix(-1 0 0 1 75.6364 73.1035)" fill="#F2D345"/>
<rect width="9.45454" height="3.65517" transform="matrix(-1 0 0 1 71.8545 78.5862)" fill="#F2D345"/>
<rect width="5.67273" height="5.48276" transform="matrix(-1 0 0 1 66.1818 80.4138)" fill="#F2D345"/>
<path d="M62.4 84.069H56.7273V87.7241H62.4V84.069Z" fill="#F2D345"/>
<rect width="5.67272" height="5.48276" transform="matrix(-1 0 0 1 83.2 42.0345)" fill="#F2D345"/>
<rect width="5.67272" height="5.48276" transform="matrix(-1 0 0 1 83.2 47.5172)" fill="#F2D345"/>
<rect width="5.67272" height="3.65517" transform="matrix(-1 0 0 1 83.2 53)" fill="#F2D345"/>
<rect width="5.67272" height="5.48276" transform="matrix(-1 0 0 1 83.2 56.6552)" fill="#F2D345"/>
<rect x="26.4728" y="14.6207" width="9.45455" height="7.31034" fill="#F2D345"/>
<rect x="20.8" y="20.1035" width="9.45455" height="7.31034" fill="#F2D345"/>
<rect x="17.0182" y="23.7586" width="5.67273" height="7.31034" fill="#F2D345"/>
<rect x="13.2363" y="29.2414" width="5.67273" height="9.13793" fill="#F2D345"/>
<rect x="13.2363" y="34.7241" width="5.67273" height="9.13793" fill="#F2D345"/>
<rect x="7.5636" y="42.0345" width="9.45455" height="9.13793" fill="#F2D345"/>
<rect x="7.5636" y="51.1724" width="9.45455" height="7.31034" fill="#F2D345"/>
<rect x="7.5636" y="58.4828" width="9.45455" height="9.13793" fill="#F2D345"/>
<rect x="7.5636" y="62.1379" width="9.45455" height="9.13793" fill="#F2D345"/>
<rect x="13.2363" y="71.2759" width="5.67273" height="9.13793" fill="#F2D345"/>
<rect x="18.9091" y="78.5862" width="5.67273" height="7.31035" fill="#F2D345"/>
<rect x="22.6909" y="82.2414" width="9.45455" height="7.31035" fill="#F2D345"/>
<rect x="26.4728" y="85.8965" width="9.45455" height="7.31034" fill="#F2D345"/>
<rect x="34.0364" y="89.5517" width="7.56363" height="9.13792" fill="#F2D345"/>
<rect x="41.6" y="93.2069" width="13.2364" height="9.13793" fill="#F2D345"/>
<rect width="7.56364" height="9.13793" transform="matrix(-1 0 0 1 62.4 5.48276)" fill="#F2D345"/>
<rect width="5.67273" height="9.13793" transform="matrix(-1 0 0 1 68.0728 10.9655)" fill="#F2D345"/>
<rect width="9.45454" height="7.31034" transform="matrix(-1 0 0 1 77.5272 14.6207)" fill="#F2D345"/>
<rect width="9.45454" height="7.31034" transform="matrix(-1 0 0 1 83.2 20.1035)" fill="#F2D345"/>
<rect width="5.67273" height="7.31034" transform="matrix(-1 0 0 1 86.9818 23.7586)" fill="#F2D345"/>
<rect width="5.67272" height="9.13793" transform="matrix(-1 0 0 1 90.7637 29.2414)" fill="#F2D345"/>
<rect width="5.67272" height="9.13793" transform="matrix(-1 0 0 1 90.7637 34.7241)" fill="#F2D345"/>
<rect width="9.45454" height="9.13793" transform="matrix(-1 0 0 1 96.4364 42.0345)" fill="#F2D345"/>
<rect width="9.45454" height="7.31034" transform="matrix(-1 0 0 1 96.4364 51.1724)" fill="#F2D345"/>
<rect width="9.45454" height="9.13793" transform="matrix(-1 0 0 1 96.4364 58.4828)" fill="#F2D345"/>
<rect width="9.45454" height="9.13793" transform="matrix(-1 0 0 1 96.4364 62.1379)" fill="#F2D345"/>
<rect width="5.67272" height="9.13793" transform="matrix(-1 0 0 1 90.7637 71.2759)" fill="#F2D345"/>
<rect width="5.67273" height="7.31035" transform="matrix(-1 0 0 1 85.0909 78.5862)" fill="#F2D345"/>
<rect width="9.45454" height="7.31035" transform="matrix(-1 0 0 1 81.3091 82.2414)" fill="#F2D345"/>
<rect width="9.45454" height="7.31034" transform="matrix(-1 0 0 1 77.5272 85.8965)" fill="#F2D345"/>
<rect width="7.56364" height="9.13792" transform="matrix(-1 0 0 1 69.9636 89.5517)" fill="#F2D345"/>
<rect width="7.56364" height="9.13793" transform="matrix(-1 0 0 1 62.4 93.2069)" fill="#F2D345"/>
<rect x="43.491" y="23.7586" width="9.45454" height="7.31034" fill="#FFEC8C"/>
<rect x="41.6" y="25.5862" width="1.89091" height="9.13793" fill="#FFEC8C"/>
<rect x="32.1455" y="34.7241" width="5.67273" height="1.82759" fill="#FFEC8C"/>
<rect x="30.2545" y="34.7241" width="1.89091" height="3.65517" fill="#FFEC8C"/>
<rect x="28.3636" y="36.5517" width="1.89091" height="5.48276" fill="#FFEC8C"/>
<rect x="26.4728" y="40.2069" width="3.78182" height="7.31034" fill="#FFEC8C"/>
<rect x="24.5818" y="45.6897" width="5.67273" height="9.13793" fill="#FFEC8C"/>
<rect x="24.5818" y="54.8276" width="5.67273" height="1.82759" fill="#FFEC8C"/>
<rect x="24.5818" y="56.6552" width="5.67273" height="7.31034" fill="#FFEC8C"/>
<rect x="24.5818" y="60.3103" width="5.67273" height="7.31034" fill="#FFEC8C"/>
<rect x="28.3636" y="67.6207" width="1.89091" height="3.65517" fill="#FFEC8C"/>
<rect x="30.2545" y="71.2759" width="3.78182" height="1.82758" fill="#FFEC8C"/>
<rect x="32.1455" y="73.1035" width="7.56364" height="1.82759" fill="#FFEC8C"/>
<rect x="41.6" y="74.931" width="1.89091" height="5.48276" fill="#FFEC8C"/>
<rect x="43.491" y="76.7586" width="9.45454" height="7.31034" fill="#FFEC8C"/>
<rect width="7.56364" height="7.31034" transform="matrix(-1 0 0 1 60.509 23.7586)" fill="#FFEC8C"/>
<rect width="1.89091" height="9.13793" transform="matrix(-1 0 0 1 62.4 25.5862)" fill="#FFEC8C"/>
<rect width="5.67273" height="1.82759" transform="matrix(-1 0 0 1 71.8545 34.7241)" fill="#FFEC8C"/>
<rect width="1.89091" height="3.65517" transform="matrix(-1 0 0 1 73.7455 34.7241)" fill="#FFEC8C"/>
<rect width="1.89091" height="5.48276" transform="matrix(-1 0 0 1 75.6364 36.5517)" fill="#FFEC8C"/>
<rect width="3.78182" height="7.31034" transform="matrix(-1 0 0 1 77.5272 40.2069)" fill="#FFEC8C"/>
<rect width="5.67273" height="9.13793" transform="matrix(-1 0 0 1 79.4182 45.6897)" fill="#FFEC8C"/>
<rect width="5.67273" height="1.82759" transform="matrix(-1 0 0 1 79.4182 54.8276)" fill="#FFEC8C"/>
<rect width="5.67273" height="7.31034" transform="matrix(-1 0 0 1 79.4182 56.6552)" fill="#FFEC8C"/>
<rect width="5.67273" height="7.31034" transform="matrix(-1 0 0 1 79.4182 60.3103)" fill="#FFEC8C"/>
<rect width="1.89091" height="3.65517" transform="matrix(-1 0 0 1 75.6364 67.6207)" fill="#FFEC8C"/>
<rect width="3.78181" height="1.82758" transform="matrix(-1 0 0 1 73.7455 71.2759)" fill="#FFEC8C"/>
<rect width="7.56364" height="1.82759" transform="matrix(-1 0 0 1 71.8545 73.1035)" fill="#FFEC8C"/>
<rect width="3.78182" height="5.48276" transform="matrix(-1 0 0 1 64.2909 74.931)" fill="#FFEC8C"/>
<rect width="7.56364" height="7.31034" transform="matrix(-1 0 0 1 60.509 76.7586)" fill="#FFEC8C"/>
<rect x="39.4482" y="30.8364" width="9.56322" height="9.26573" fill="#A86D2A"/>
<rect x="52.8368" y="30.8364" width="11.4759" height="9.26573" fill="#A86D2A"/>
<rect x="54.7494" y="38.249" width="9.56322" height="9.26573" fill="#A86D2A"/>
<rect x="50.9241" y="43.8084" width="7.65057" height="9.26573" fill="#A86D2A"/>
<rect x="41.3608" y="51.221" width="7.65057" height="7.41259" fill="#A86D2A"/>
<rect x="47.0989" y="49.3678" width="9.56322" height="9.26573" fill="#A86D2A"/>
<rect x="54.7494" y="51.221" width="9.56322" height="9.26573" fill="#A86D2A"/>
<rect x="58.5747" y="54.9273" width="9.56322" height="9.26573" fill="#A86D2A"/>
<rect x="58.5747" y="62.3399" width="9.56322" height="9.26574" fill="#A86D2A"/>
<rect x="56.662" y="67.8993" width="9.56322" height="9.26574" fill="#A86D2A"/>
<rect x="49.0115" y="69.7524" width="9.56322" height="9.26574" fill="#A86D2A"/>
<rect x="39.4482" y="69.7524" width="9.56322" height="9.26574" fill="#A86D2A"/>
<rect x="41.3608" y="30.8364" width="11.4759" height="9.26573" fill="#A86D2A"/>
</svg>
