<svg width="104" height="159" viewBox="0 0 104 159" fill="none" xmlns="http://www.w3.org/2000/svg">
<rect x="24.5818" y="87.7241" width="7.56364" height="9.13793" fill="#31356F"/>
<rect x="17.0182" y="87.7241" width="7.56364" height="9.13793" fill="#31356F"/>
<rect x="24.5818" y="96.8621" width="7.56364" height="9.13793" fill="#31356F"/>
<rect x="24.5818" y="106" width="7.56364" height="9.13793" fill="#31356F"/>
<rect x="24.5818" y="113.31" width="7.56364" height="9.13793" fill="#31356F"/>
<rect x="24.5818" y="122.448" width="7.56364" height="9.13793" fill="#31356F"/>
<rect x="24.5818" y="129.759" width="7.56364" height="9.13793" fill="#31356F"/>
<rect x="22.6909" y="135.241" width="7.56364" height="9.13794" fill="#31356F"/>
<rect x="15.1273" y="140.724" width="7.56364" height="9.13793" fill="#31356F"/>
<rect x="11.3455" y="137.069" width="7.56364" height="9.13793" fill="#31356F"/>
<rect x="11.3455" y="87.7241" width="7.56364" height="49.3448" fill="#31356F"/>
<rect x="15.1273" y="93.2069" width="11.3455" height="49.3448" fill="#3654A0"/>
<rect width="7.56364" height="9.13793" transform="matrix(-1 0 0 1 83.2 89.5517)" fill="#31356F"/>
<rect width="7.56364" height="9.13793" transform="matrix(-1 0 0 1 90.7636 89.5517)" fill="#31356F"/>
<rect width="7.56364" height="9.13793" transform="matrix(-1 0 0 1 83.2 98.6897)" fill="#31356F"/>
<rect width="7.56364" height="9.13793" transform="matrix(-1 0 0 1 83.2 107.828)" fill="#31356F"/>
<rect width="7.56364" height="9.13793" transform="matrix(-1 0 0 1 83.2 115.138)" fill="#31356F"/>
<rect width="7.56364" height="9.13793" transform="matrix(-1 0 0 1 83.2 124.276)" fill="#31356F"/>
<rect width="7.56364" height="9.13793" transform="matrix(-1 0 0 1 83.2 131.586)" fill="#31356F"/>
<rect width="7.56364" height="9.13793" transform="matrix(-1 0 0 1 85.0909 137.069)" fill="#31356F"/>
<rect width="7.56364" height="9.13793" transform="matrix(-1 0 0 1 92.6545 142.552)" fill="#31356F"/>
<rect width="7.56364" height="9.13793" transform="matrix(-1 0 0 1 96.4363 138.897)" fill="#31356F"/>
<rect width="7.56364" height="49.3448" transform="matrix(-1 0 0 1 96.4363 89.5517)" fill="#31356F"/>
<rect width="11.3455" height="49.3448" transform="matrix(-1 0 0 1 92.6545 95.0345)" fill="#3654A0"/>
<rect x="60.5091" y="93.2069" width="13.2364" height="9.13793" fill="#7B2B56"/>
<rect x="52.9454" y="96.8621" width="9.45455" height="9.13793" fill="#7B2B56"/>
<rect x="43.4909" y="96.8621" width="9.45455" height="9.13793" fill="#7B2B56"/>
<rect x="34.0364" y="96.8621" width="9.45454" height="9.13793" fill="#7B2B56"/>
<rect x="32.1454" y="95.0345" width="9.45455" height="9.13793" fill="#7B2B56"/>
<rect x="73.7454" y="124.276" width="9.45454" height="9.13793" fill="#7B2B56"/>
<rect x="26.4727" y="95.0345" width="9.45455" height="9.13793" fill="#7B2B56"/>
<rect x="26.4727" y="104.172" width="9.45455" height="9.13793" fill="#7B2B56"/>
<rect x="26.4727" y="113.31" width="9.45455" height="9.13793" fill="#7B2B56"/>
<rect x="34.0364" y="98.6897" width="41.6" height="51.1724" fill="#98366C"/>
<rect x="26.4727" y="122.448" width="9.45455" height="9.13793" fill="#7B2B56"/>
<rect x="26.4727" y="131.586" width="9.45455" height="9.13793" fill="#7B2B56"/>
<rect x="26.4727" y="140.724" width="9.45455" height="9.13793" fill="#7B2B56"/>
<rect x="26.4727" y="149.862" width="9.45455" height="9.13793" fill="#7B2B56"/>
<rect x="32.1454" y="144.379" width="9.45455" height="9.13793" fill="#7B2B56"/>
<rect x="41.6" y="138.897" width="9.45455" height="10.9655" fill="#7B2B56"/>
<rect x="51.0546" y="138.897" width="9.45454" height="10.9655" fill="#7B2B56"/>
<rect x="58.6182" y="144.379" width="9.45454" height="9.13793" fill="#7B2B56"/>
<rect x="66.1818" y="149.862" width="9.45454" height="9.13793" fill="#7B2B56"/>
<rect x="71.8546" y="149.862" width="9.45455" height="9.13793" fill="#7B2B56"/>
<rect x="73.7454" y="142.552" width="9.45454" height="9.13793" fill="#7B2B56"/>
<rect x="73.7454" y="133.414" width="9.45454" height="9.13793" fill="#7B2B56"/>
<rect x="73.7454" y="124.276" width="9.45454" height="9.13793" fill="#7B2B56"/>
<rect x="73.7454" y="115.138" width="9.45454" height="9.13793" fill="#7B2B56"/>
<rect x="73.7454" y="106" width="9.45454" height="9.13793" fill="#7B2B56"/>
<rect x="73.7454" y="96.8621" width="9.45454" height="9.13793" fill="#7B2B56"/>
<rect width="56.7273" height="62.1379" transform="matrix(-1 0 0 1 79.4182 23.7586)" fill="#F2D345"/>
<rect width="5.67273" height="5.48276" transform="matrix(-1 0 0 1 68.0728 73.1035)" fill="#FFEC8C"/>
<rect x="35.9272" y="73.1035" width="5.67273" height="5.48276" fill="#FFEC8C"/>
<rect width="5.67273" height="5.48276" transform="matrix(-1 0 0 1 68.0728 29.2414)" fill="#FFEC8C"/>
<rect x="35.9272" y="29.2414" width="5.67273" height="5.48276" fill="#FFEC8C"/>
<rect x="75.6364" y="65.7931" width="15.1273" height="18.2759" fill="#FFE871"/>
<rect x="64.2909" y="78.5862" width="15.1273" height="18.2759" fill="#FFE871"/>
<rect x="13.2364" y="67.6207" width="13.2364" height="9.13793" fill="#FFE871"/>
<rect x="15.1273" y="74.931" width="13.2364" height="9.13792" fill="#FFE871"/>
<rect x="15.1273" y="74.931" width="13.2364" height="9.13792" fill="#FFE871"/>
<rect x="30.2545" y="82.2414" width="13.2364" height="9.13793" fill="#FFE871"/>
<rect x="41.6" y="85.8965" width="30.2545" height="9.13793" fill="#FFE871"/>
<rect x="41.6" y="7.31033" width="13.2364" height="9.13793" fill="#FFE871"/>
<rect x="51.0546" y="7.31033" width="13.2364" height="9.13793" fill="#FFE871"/>
<rect x="64.2909" y="18.2758" width="13.2364" height="9.13793" fill="#FFE871"/>
<rect x="75.6364" y="25.5862" width="13.2364" height="9.13793" fill="#FFE871"/>
<rect x="20.8" y="18.2758" width="13.2364" height="9.13793" fill="#FFE871"/>
<rect x="15.1273" y="25.5862" width="13.2364" height="9.13793" fill="#FFE871"/>
<rect x="39.7091" width="15.1273" height="9.13793" fill="#B8871C"/>
<rect x="39.7091" width="15.1273" height="9.13793" fill="#B8871C"/>
<rect x="32.1454" y="5.48276" width="9.45454" height="9.13793" fill="#B8871C"/>
<rect x="32.1454" y="20.1035" width="9.45454" height="5.48276" fill="#B8871C"/>
<rect x="39.7091" y="16.4483" width="15.1273" height="5.48276" fill="#B8871C"/>
<rect x="26.4727" y="25.5862" width="9.45455" height="5.48276" fill="#B8871C"/>
<rect x="22.6909" y="31.069" width="9.45455" height="5.48276" fill="#B8871C"/>
<rect x="17.0182" y="34.7241" width="9.45454" height="5.48276" fill="#B8871C"/>
<rect x="17.0182" y="62.1379" width="9.45454" height="5.48276" fill="#B8871C"/>
<rect x="20.8" y="67.6207" width="9.45455" height="5.48276" fill="#B8871C"/>
<rect x="24.5818" y="73.1035" width="9.45455" height="5.48276" fill="#B8871C"/>
<rect x="28.3636" y="78.5862" width="9.45454" height="5.48276" fill="#B8871C"/>
<rect x="34.0364" y="82.2414" width="9.45454" height="5.48276" fill="#B8871C"/>
<path d="M37.8182 85.8965H56.7273V91.3793H37.8182V85.8965Z" fill="#B8871C"/>
<rect x="17.0182" y="40.2069" width="5.67273" height="5.48276" fill="#B8871C"/>
<rect x="17.0182" y="45.6897" width="5.67273" height="5.48276" fill="#B8871C"/>
<rect x="17.0182" y="51.1724" width="5.67273" height="5.48276" fill="#B8871C"/>
<rect x="17.0182" y="56.6552" width="5.67273" height="5.48276" fill="#B8871C"/>
<rect width="9.45454" height="5.48276" transform="matrix(-1 0 0 1 71.8546 20.1035)" fill="#B8871C"/>
<rect width="9.45454" height="5.48276" transform="matrix(-1 0 0 1 64.2909 16.4483)" fill="#B8871C"/>
<rect width="9.45454" height="5.48276" transform="matrix(-1 0 0 1 77.5273 25.5862)" fill="#B8871C"/>
<rect width="9.45454" height="5.48276" transform="matrix(-1 0 0 1 81.3091 31.069)" fill="#B8871C"/>
<rect width="9.45454" height="5.48276" transform="matrix(-1 0 0 1 86.9818 34.7241)" fill="#B8871C"/>
<rect width="9.45454" height="5.48276" transform="matrix(-1 0 0 1 86.9818 62.1379)" fill="#B8871C"/>
<rect width="9.45454" height="5.48276" transform="matrix(-1 0 0 1 83.2 67.6207)" fill="#B8871C"/>
<rect width="9.45454" height="5.48276" transform="matrix(-1 0 0 1 79.4182 73.1035)" fill="#B8871C"/>
<rect width="9.45454" height="5.48276" transform="matrix(-1 0 0 1 75.6364 78.5862)" fill="#B8871C"/>
<rect width="9.45455" height="5.48276" transform="matrix(-1 0 0 1 69.9636 82.2414)" fill="#B8871C"/>
<path d="M66.1818 85.8965H56.7273V91.3793H66.1818V85.8965Z" fill="#B8871C"/>
<rect width="5.67273" height="5.48276" transform="matrix(-1 0 0 1 86.9818 40.2069)" fill="#B8871C"/>
<rect width="5.67273" height="5.48276" transform="matrix(-1 0 0 1 86.9818 45.6897)" fill="#B8871C"/>
<rect width="5.67273" height="5.48276" transform="matrix(-1 0 0 1 86.9818 51.1724)" fill="#B8871C"/>
<rect width="5.67273" height="5.48276" transform="matrix(-1 0 0 1 86.9818 56.6552)" fill="#B8871C"/>
<rect x="22.6909" y="9.13794" width="9.45455" height="9.13793" fill="#B8871C"/>
<rect x="17.0182" y="14.6207" width="9.45454" height="9.13793" fill="#B8871C"/>
<rect x="9.45453" y="20.1035" width="9.45455" height="9.13793" fill="#B8871C"/>
<rect x="5.67273" y="27.4138" width="9.45455" height="9.13793" fill="#B8871C"/>
<rect x="5.67273" y="32.8965" width="9.45455" height="9.13793" fill="#B8871C"/>
<rect y="40.2069" width="9.45455" height="9.13793" fill="#B8871C"/>
<rect y="49.3448" width="9.45455" height="9.13793" fill="#B8871C"/>
<rect y="58.4828" width="9.45455" height="9.13793" fill="#B8871C"/>
<rect y="62.1379" width="9.45455" height="9.13793" fill="#B8871C"/>
<rect x="5.67273" y="71.2759" width="9.45455" height="9.13793" fill="#B8871C"/>
<rect x="11.3455" y="80.4138" width="9.45455" height="9.13793" fill="#B8871C"/>
<rect x="18.9091" y="84.069" width="9.45455" height="9.13793" fill="#B8871C"/>
<rect x="22.6909" y="87.7241" width="9.45455" height="9.13793" fill="#B8871C"/>
<rect x="30.2545" y="93.2069" width="9.45455" height="9.13793" fill="#B8871C"/>
<rect x="39.7091" y="96.8621" width="15.1273" height="9.13793" fill="#B8871C"/>
<rect width="9.45454" height="9.13793" transform="matrix(-1 0 0 1 64.2909 0)" fill="#B8871C"/>
<rect width="9.45454" height="9.13793" transform="matrix(-1 0 0 1 71.8546 5.48276)" fill="#B8871C"/>
<rect width="9.45454" height="9.13793" transform="matrix(-1 0 0 1 81.3091 9.13794)" fill="#B8871C"/>
<rect width="9.45454" height="9.13793" transform="matrix(-1 0 0 1 86.9818 14.6207)" fill="#B8871C"/>
<rect width="9.45454" height="9.13793" transform="matrix(-1 0 0 1 94.5455 20.1035)" fill="#B8871C"/>
<rect width="9.45454" height="9.13793" transform="matrix(-1 0 0 1 98.3273 27.4138)" fill="#B8871C"/>
<rect width="9.45454" height="9.13793" transform="matrix(-1 0 0 1 98.3273 32.8965)" fill="#B8871C"/>
<rect width="9.45454" height="9.13793" transform="matrix(-1 0 0 1 104 40.2069)" fill="#B8871C"/>
<rect width="9.45454" height="9.13793" transform="matrix(-1 0 0 1 104 49.3448)" fill="#B8871C"/>
<rect width="9.45454" height="9.13793" transform="matrix(-1 0 0 1 104 58.4828)" fill="#B8871C"/>
<rect width="9.45454" height="9.13793" transform="matrix(-1 0 0 1 104 62.1379)" fill="#B8871C"/>
<rect width="9.45454" height="9.13793" transform="matrix(-1 0 0 1 98.3273 71.2759)" fill="#B8871C"/>
<rect width="9.45455" height="9.13793" transform="matrix(-1 0 0 1 92.6545 80.4138)" fill="#B8871C"/>
<rect width="9.45455" height="9.13793" transform="matrix(-1 0 0 1 85.0909 84.069)" fill="#B8871C"/>
<rect width="9.45454" height="9.13793" transform="matrix(-1 0 0 1 81.3091 87.7241)" fill="#B8871C"/>
<rect width="9.45454" height="9.13793" transform="matrix(-1 0 0 1 73.7455 93.2069)" fill="#B8871C"/>
<rect width="9.45454" height="9.13793" transform="matrix(-1 0 0 1 64.2909 96.8621)" fill="#B8871C"/>
<rect x="41.6" y="5.48276" width="13.2364" height="9.13793" fill="#F2D345"/>
<rect x="41.6" y="5.48276" width="13.2364" height="9.13793" fill="#F2D345"/>
<rect x="35.9272" y="10.9655" width="5.67273" height="9.13793" fill="#F2D345"/>
<rect x="35.9272" y="23.7586" width="5.67273" height="5.48276" fill="#F2D345"/>
<rect x="41.6" y="21.931" width="13.2364" height="3.65517" fill="#F2D345"/>
<rect x="30.2545" y="29.2414" width="9.45455" height="3.65517" fill="#F2D345"/>
<rect x="26.4727" y="32.8965" width="9.45455" height="3.65517" fill="#F2D345"/>
<rect x="20.8" y="36.5517" width="9.45455" height="5.48276" fill="#F2D345"/>
<rect x="20.8" y="62.1379" width="9.45455" height="5.48276" fill="#F2D345"/>
<rect x="24.5818" y="69.4483" width="5.67273" height="3.65517" fill="#F2D345"/>
<rect x="28.3636" y="73.1035" width="9.45454" height="5.48276" fill="#F2D345"/>
<rect x="32.1454" y="78.5862" width="9.45454" height="3.65517" fill="#F2D345"/>
<rect x="37.8182" y="80.4138" width="5.67273" height="5.48276" fill="#F2D345"/>
<path d="M41.6 84.069H56.7272V87.7241H41.6V84.069Z" fill="#F2D345"/>
<rect x="20.8" y="42.0345" width="5.67273" height="5.48276" fill="#F2D345"/>
<rect x="20.8" y="47.5172" width="5.67273" height="5.48276" fill="#F2D345"/>
<rect x="20.8" y="53" width="5.67273" height="3.65517" fill="#F2D345"/>
<rect x="20.8" y="56.6552" width="5.67273" height="5.48276" fill="#F2D345"/>
<rect width="5.67273" height="5.48276" transform="matrix(-1 0 0 1 68.0728 23.7586)" fill="#F2D345"/>
<rect width="7.56364" height="3.65517" transform="matrix(-1 0 0 1 62.4 21.931)" fill="#F2D345"/>
<rect width="9.45454" height="3.65517" transform="matrix(-1 0 0 1 73.7455 29.2414)" fill="#F2D345"/>
<rect width="9.45454" height="3.65517" transform="matrix(-1 0 0 1 77.5273 32.8965)" fill="#F2D345"/>
<rect width="9.45454" height="5.48276" transform="matrix(-1 0 0 1 83.2 36.5517)" fill="#F2D345"/>
<rect width="9.45454" height="5.48276" transform="matrix(-1 0 0 1 83.2 62.1379)" fill="#F2D345"/>
<rect width="5.67273" height="5.48276" transform="matrix(-1 0 0 1 79.4182 67.6207)" fill="#F2D345"/>
<rect width="9.45454" height="5.48276" transform="matrix(-1 0 0 1 75.6364 73.1035)" fill="#F2D345"/>
<rect width="9.45454" height="3.65517" transform="matrix(-1 0 0 1 71.8546 78.5862)" fill="#F2D345"/>
<rect width="5.67273" height="5.48276" transform="matrix(-1 0 0 1 66.1818 80.4138)" fill="#F2D345"/>
<path d="M62.4 84.069H56.7273V87.7241H62.4V84.069Z" fill="#F2D345"/>
<rect width="5.67272" height="5.48276" transform="matrix(-1 0 0 1 83.2 42.0345)" fill="#F2D345"/>
<rect width="5.67272" height="5.48276" transform="matrix(-1 0 0 1 83.2 47.5172)" fill="#F2D345"/>
<rect width="5.67272" height="3.65517" transform="matrix(-1 0 0 1 83.2 53)" fill="#F2D345"/>
<rect width="5.67272" height="5.48276" transform="matrix(-1 0 0 1 83.2 56.6552)" fill="#F2D345"/>
<rect x="26.4727" y="14.6207" width="9.45455" height="7.31034" fill="#F2D345"/>
<rect x="20.8" y="20.1035" width="9.45455" height="7.31034" fill="#F2D345"/>
<rect x="17.0182" y="23.7586" width="5.67273" height="7.31034" fill="#F2D345"/>
<rect x="13.2364" y="29.2414" width="5.67273" height="9.13793" fill="#F2D345"/>
<rect x="13.2364" y="34.7241" width="5.67273" height="9.13793" fill="#F2D345"/>
<rect x="7.56366" y="42.0345" width="9.45455" height="9.13793" fill="#F2D345"/>
<rect x="7.56366" y="51.1724" width="9.45455" height="7.31034" fill="#F2D345"/>
<rect x="7.56366" y="58.4828" width="9.45455" height="9.13793" fill="#F2D345"/>
<rect x="7.56366" y="62.1379" width="9.45455" height="9.13793" fill="#F2D345"/>
<rect x="13.2364" y="71.2759" width="5.67273" height="9.13793" fill="#F2D345"/>
<rect x="18.9091" y="78.5862" width="5.67273" height="7.31035" fill="#F2D345"/>
<rect x="22.6909" y="82.2414" width="9.45455" height="7.31035" fill="#F2D345"/>
<rect x="26.4727" y="85.8965" width="9.45455" height="7.31034" fill="#F2D345"/>
<rect x="34.0364" y="89.5517" width="7.56363" height="9.13792" fill="#F2D345"/>
<rect x="41.6" y="93.2069" width="13.2364" height="9.13793" fill="#F2D345"/>
<rect width="7.56364" height="9.13793" transform="matrix(-1 0 0 1 62.4 5.48276)" fill="#F2D345"/>
<rect width="5.67273" height="9.13793" transform="matrix(-1 0 0 1 68.0728 10.9655)" fill="#F2D345"/>
<rect width="9.45454" height="7.31034" transform="matrix(-1 0 0 1 77.5273 14.6207)" fill="#F2D345"/>
<rect width="9.45454" height="7.31034" transform="matrix(-1 0 0 1 83.2 20.1035)" fill="#F2D345"/>
<rect width="5.67273" height="7.31034" transform="matrix(-1 0 0 1 86.9818 23.7586)" fill="#F2D345"/>
<rect width="5.67272" height="9.13793" transform="matrix(-1 0 0 1 90.7636 29.2414)" fill="#F2D345"/>
<rect width="5.67272" height="9.13793" transform="matrix(-1 0 0 1 90.7636 34.7241)" fill="#F2D345"/>
<rect width="9.45454" height="9.13793" transform="matrix(-1 0 0 1 96.4363 42.0345)" fill="#F2D345"/>
<rect width="9.45454" height="7.31034" transform="matrix(-1 0 0 1 96.4363 51.1724)" fill="#F2D345"/>
<rect width="9.45454" height="9.13793" transform="matrix(-1 0 0 1 96.4363 58.4828)" fill="#F2D345"/>
<rect width="9.45454" height="9.13793" transform="matrix(-1 0 0 1 96.4363 62.1379)" fill="#F2D345"/>
<rect width="5.67272" height="9.13793" transform="matrix(-1 0 0 1 90.7636 71.2759)" fill="#F2D345"/>
<rect width="5.67273" height="7.31035" transform="matrix(-1 0 0 1 85.0909 78.5862)" fill="#F2D345"/>
<rect width="9.45454" height="7.31035" transform="matrix(-1 0 0 1 81.3091 82.2414)" fill="#F2D345"/>
<rect width="9.45454" height="7.31034" transform="matrix(-1 0 0 1 77.5273 85.8965)" fill="#F2D345"/>
<rect width="7.56364" height="9.13792" transform="matrix(-1 0 0 1 69.9636 89.5517)" fill="#F2D345"/>
<rect width="7.56364" height="9.13793" transform="matrix(-1 0 0 1 62.4 93.2069)" fill="#F2D345"/>
<rect x="43.4909" y="23.7586" width="9.45454" height="7.31034" fill="#FFEC8C"/>
<rect x="41.6" y="25.5862" width="1.89091" height="9.13793" fill="#FFEC8C"/>
<rect x="32.1454" y="34.7241" width="5.67273" height="1.82759" fill="#FFEC8C"/>
<rect x="30.2545" y="34.7241" width="1.89091" height="3.65517" fill="#FFEC8C"/>
<rect x="28.3636" y="36.5517" width="1.89091" height="5.48276" fill="#FFEC8C"/>
<rect x="26.4727" y="40.2069" width="3.78182" height="7.31034" fill="#FFEC8C"/>
<rect x="24.5818" y="45.6897" width="5.67273" height="9.13793" fill="#FFEC8C"/>
<rect x="24.5818" y="54.8276" width="5.67273" height="1.82759" fill="#FFEC8C"/>
<rect x="24.5818" y="56.6552" width="5.67273" height="7.31034" fill="#FFEC8C"/>
<rect x="24.5818" y="60.3103" width="5.67273" height="7.31034" fill="#FFEC8C"/>
<rect x="28.3636" y="67.6207" width="1.89091" height="3.65517" fill="#FFEC8C"/>
<rect x="30.2545" y="71.2759" width="3.78182" height="1.82758" fill="#FFEC8C"/>
<rect x="32.1454" y="73.1035" width="7.56364" height="1.82759" fill="#FFEC8C"/>
<rect x="41.6" y="74.931" width="1.89091" height="5.48276" fill="#FFEC8C"/>
<rect x="43.4909" y="76.7586" width="9.45454" height="7.31034" fill="#FFEC8C"/>
<rect width="7.56364" height="7.31034" transform="matrix(-1 0 0 1 60.5091 23.7586)" fill="#FFEC8C"/>
<rect width="1.89091" height="9.13793" transform="matrix(-1 0 0 1 62.4 25.5862)" fill="#FFEC8C"/>
<rect width="5.67273" height="1.82759" transform="matrix(-1 0 0 1 71.8546 34.7241)" fill="#FFEC8C"/>
<rect width="1.89091" height="3.65517" transform="matrix(-1 0 0 1 73.7455 34.7241)" fill="#FFEC8C"/>
<rect width="1.89091" height="5.48276" transform="matrix(-1 0 0 1 75.6364 36.5517)" fill="#FFEC8C"/>
<rect width="3.78182" height="7.31034" transform="matrix(-1 0 0 1 77.5273 40.2069)" fill="#FFEC8C"/>
<rect width="5.67273" height="9.13793" transform="matrix(-1 0 0 1 79.4182 45.6897)" fill="#FFEC8C"/>
<rect width="5.67273" height="1.82759" transform="matrix(-1 0 0 1 79.4182 54.8276)" fill="#FFEC8C"/>
<rect width="5.67273" height="7.31034" transform="matrix(-1 0 0 1 79.4182 56.6552)" fill="#FFEC8C"/>
<rect width="5.67273" height="7.31034" transform="matrix(-1 0 0 1 79.4182 60.3103)" fill="#FFEC8C"/>
<rect width="1.89091" height="3.65517" transform="matrix(-1 0 0 1 75.6364 67.6207)" fill="#FFEC8C"/>
<rect width="3.78181" height="1.82758" transform="matrix(-1 0 0 1 73.7455 71.2759)" fill="#FFEC8C"/>
<rect width="7.56364" height="1.82759" transform="matrix(-1 0 0 1 71.8546 73.1035)" fill="#FFEC8C"/>
<rect width="3.78182" height="5.48276" transform="matrix(-1 0 0 1 64.2909 74.931)" fill="#FFEC8C"/>
<rect width="7.56364" height="7.31034" transform="matrix(-1 0 0 1 60.5091 76.7586)" fill="#FFEC8C"/>
<rect x="43.4909" y="31.069" width="17.0182" height="5.48276" fill="#8F510A"/>
<rect x="37.8182" y="32.8965" width="17.0182" height="5.48276" fill="#8F510A"/>
<rect x="39.7091" y="69.4483" width="24.5818" height="5.48276" fill="#8F510A"/>
<rect x="37.8182" y="34.7242" width="5.67273" height="5.48276" fill="#A86D2A"/>
<rect x="43.4909" y="32.8965" width="5.67273" height="5.48276" fill="#A86D2A"/>
<rect x="49.1636" y="32.8965" width="5.67273" height="5.48276" fill="#A86D2A"/>
<rect x="54.8364" y="32.8965" width="5.67273" height="5.48276" fill="#A86D2A"/>
<rect x="43.4909" y="36.5517" width="5.67273" height="5.48276" fill="#A86D2A"/>
<rect x="37.8182" y="34.7242" width="5.67273" height="5.48276" fill="#A86D2A"/>
<rect x="37.8182" y="36.5517" width="5.67273" height="5.48276" fill="#A86D2A"/>
<rect x="49.1636" y="36.5517" width="5.67273" height="5.48276" fill="#A86D2A"/>
<rect x="45.3818" y="42.0345" width="15.1273" height="29.2414" fill="#A86D2A"/>
<rect x="39.7091" y="71.2759" width="24.5818" height="5.48276" fill="#A86D2A"/>
<rect x="54.8364" y="36.5517" width="5.67273" height="5.48276" fill="#A86D2A"/>
</svg>
