<svg width="60" height="48" viewBox="0 0 60 48" fill="none" xmlns="http://www.w3.org/2000/svg">
<rect width="3.19149" height="3.63636" transform="matrix(-1 0 0 1 24.2553 0)" fill="#A15D04"/>
<rect width="3.19149" height="3.63636" transform="matrix(-1 0 0 1 21.0638 0)" fill="#A15D04"/>
<rect width="3.19149" height="3.63636" transform="matrix(-1 0 0 1 17.8723 0)" fill="#A15D04"/>
<rect width="3.19149" height="3.63636" transform="matrix(-1 0 0 1 14.6808 0)" fill="#A15D04"/>
<rect width="3.19149" height="3.63636" transform="matrix(-1 0 0 1 12.1277 0)" fill="#A15D04"/>
<rect width="3.19149" height="3.63636" transform="matrix(-1 0 0 1 12.1277 3.63637)" fill="#A15D04"/>
<rect width="3.19149" height="3.63636" transform="matrix(-1 0 0 1 8.93616 3.63637)" fill="#A15D04"/>
<rect width="3.19149" height="3.63636" transform="matrix(-1 0 0 1 8.93616 7.27272)" fill="#A15D04"/>
<rect width="3.19149" height="3.63636" transform="matrix(-1 0 0 1 5.74469 7.27272)" fill="#A15D04"/>
<rect width="3.19149" height="3.63636" transform="matrix(-1 0 0 1 6.383 10.9091)" fill="#A15D04"/>
<rect width="3.19149" height="3.63636" transform="matrix(-1 0 0 1 3.19147 10.9091)" fill="#A15D04"/>
<rect width="3.19149" height="3.63636" transform="matrix(-1 0 0 1 3.19147 14.5455)" fill="#A15D04"/>
<rect width="3.19149" height="3.63636" transform="matrix(-1 0 0 1 3.19147 18.1818)" fill="#A15D04"/>
<rect width="3.19149" height="3.63636" transform="matrix(-1 0 0 1 3.19147 21.8182)" fill="#A15D04"/>
<rect width="3.19149" height="3.63636" transform="matrix(-1 0 0 1 6.383 24)" fill="#A15D04"/>
<rect width="3.19149" height="3.63636" transform="matrix(-1 0 0 1 6.383 27.6364)" fill="#A15D04"/>
<rect width="3.19149" height="3.63636" transform="matrix(-1 0 0 1 9.57446 27.6364)" fill="#A15D04"/>
<rect width="3.19149" height="3.63636" transform="matrix(-1 0 0 1 36.383 24)" fill="#A15D04"/>
<rect width="3.19149" height="3.63636" transform="matrix(-1 0 0 1 33.8298 27.6364)" fill="#A15D04"/>
<rect width="3.19149" height="3.63636" transform="matrix(-1 0 0 1 39.5745 31.2727)" fill="#A15D04"/>
<rect width="3.19149" height="3.63637" transform="matrix(-1 0 0 1 42.7659 30.5455)" fill="#A15D04"/>
<rect width="3.19149" height="3.63636" transform="matrix(-1 0 0 1 42.7659 34.1818)" fill="#A15D04"/>
<rect width="3.19149" height="3.63636" transform="matrix(-1 0 0 1 45.9575 34.1818)" fill="#A15D04"/>
<rect width="3.19149" height="3.63636" transform="matrix(-1 0 0 1 47.8723 34.1818)" fill="#A15D04"/>
<rect width="3.19149" height="3.63636" transform="matrix(-1 0 0 1 47.8723 37.8182)" fill="#A15D04"/>
<rect width="3.19149" height="3.63636" transform="matrix(-1 0 0 1 51.0638 37.8182)" fill="#A15D04"/>
<rect width="3.19149" height="3.63636" transform="matrix(-1 0 0 1 54.2553 37.8182)" fill="#A15D04"/>
<rect width="3.19149" height="3.63636" transform="matrix(-1 0 0 1 51.0638 41.4545)" fill="#A15D04"/>
<rect width="3.19149" height="3.63636" transform="matrix(-1 0 0 1 54.2553 41.4545)" fill="#A15D04"/>
<rect width="3.19149" height="3.63636" transform="matrix(-1 0 0 1 57.4468 40.7273)" fill="#A15D04"/>
<rect width="3.19149" height="3.63636" transform="matrix(-1 0 0 1 60 40.7273)" fill="#A15D04"/>
<rect width="3.19149" height="3.63636" transform="matrix(-1 0 0 1 60 44.3636)" fill="#A15D04"/>
<rect width="3.19149" height="3.63636" transform="matrix(-1 0 0 1 56.8085 44.3636)" fill="#A15D04"/>
<rect width="3.19149" height="3.63636" transform="matrix(-1 0 0 1 42.7659 34.1818)" fill="#A15D04"/>
<rect width="3.19149" height="3.63636" transform="matrix(-1 0 0 1 37.0213 27.6364)" fill="#A15D04"/>
<rect width="3.19149" height="3.63636" transform="matrix(-1 0 0 1 39.5745 27.6364)" fill="#A15D04"/>
<rect width="3.19149" height="3.63636" transform="matrix(-1 0 0 1 36.383 31.2727)" fill="#A15D04"/>
<rect width="3.19149" height="3.63636" transform="matrix(-1 0 0 1 36.383 24)" fill="#A15D04"/>
<rect width="3.19149" height="3.63636" transform="matrix(-1 0 0 1 9.57446 31.2727)" fill="#A15D04"/>
<rect width="3.19149" height="3.63637" transform="matrix(-1 0 0 1 12.7659 30.5455)" fill="#A15D04"/>
<rect width="3.19149" height="3.63636" transform="matrix(-1 0 0 1 12.7659 34.1818)" fill="#EE921A"/>
<rect width="3.19149" height="3.63636" transform="matrix(-1 0 0 1 12.7659 34.1818)" fill="#EE921A"/>
<rect width="3.19149" height="3.63636" transform="matrix(-1 0 0 1 12.7659 34.1818)" fill="#EE921A"/>
<rect width="3.19149" height="3.63636" transform="matrix(-1 0 0 1 12.7659 34.1818)" fill="#EE921A"/>
<rect width="3.19149" height="3.63636" transform="matrix(-1 0 0 1 15.9575 34.1818)" fill="#EE921A"/>
<rect width="3.19149" height="3.63636" transform="matrix(-1 0 0 1 15.9575 34.1818)" fill="#EE921A"/>
<rect width="3.19149" height="3.63636" transform="matrix(-1 0 0 1 15.9575 34.1818)" fill="#EE921A"/>
<rect width="3.19149" height="3.63636" transform="matrix(-1 0 0 1 15.9575 34.1818)" fill="#EE921A"/>
<rect width="3.19149" height="3.63636" transform="matrix(-1 0 0 1 19.1489 34.1818)" fill="#EE921A"/>
<rect width="3.19149" height="3.63636" transform="matrix(-1 0 0 1 19.1489 34.1818)" fill="#EE921A"/>
<rect width="3.19149" height="3.63636" transform="matrix(-1 0 0 1 19.1489 34.1818)" fill="#EE921A"/>
<rect width="3.19149" height="3.63636" transform="matrix(-1 0 0 1 19.1489 34.1818)" fill="#EE921A"/>
<rect width="3.19149" height="3.63636" transform="matrix(-1 0 0 1 22.3405 34.1818)" fill="#EE921A"/>
<rect width="3.19149" height="3.63636" transform="matrix(-1 0 0 1 22.3405 34.1818)" fill="#EE921A"/>
<rect width="3.19149" height="3.63636" transform="matrix(-1 0 0 1 22.3405 34.1818)" fill="#EE921A"/>
<rect width="3.19149" height="3.63636" transform="matrix(-1 0 0 1 22.3405 34.1818)" fill="#EE921A"/>
<rect width="3.19149" height="3.63636" transform="matrix(-1 0 0 1 25.5319 34.1818)" fill="#EE921A"/>
<rect width="3.19149" height="3.63636" transform="matrix(-1 0 0 1 25.5319 34.1818)" fill="#EE921A"/>
<rect width="3.19149" height="3.63636" transform="matrix(-1 0 0 1 25.5319 34.1818)" fill="#EE921A"/>
<rect width="3.19149" height="3.63636" transform="matrix(-1 0 0 1 25.5319 34.1818)" fill="#EE921A"/>
<rect width="3.19149" height="3.63637" transform="matrix(-1 0 0 1 24.2553 30.5455)" fill="#EE921A"/>
<rect width="3.19149" height="3.63637" transform="matrix(-1 0 0 1 24.2553 30.5455)" fill="#EE921A"/>
<rect width="3.19149" height="3.63637" transform="matrix(-1 0 0 1 24.2553 30.5455)" fill="#EE921A"/>
<rect width="3.19149" height="3.63637" transform="matrix(-1 0 0 1 24.2553 30.5455)" fill="#EE921A"/>
<rect width="3.19149" height="3.63637" transform="matrix(-1 0 0 1 27.4468 30.5455)" fill="#EE921A"/>
<rect width="3.19149" height="3.63637" transform="matrix(-1 0 0 1 27.4468 30.5455)" fill="#EE921A"/>
<rect width="3.19149" height="3.63637" transform="matrix(-1 0 0 1 27.4468 30.5455)" fill="#EE921A"/>
<rect width="3.19149" height="3.63637" transform="matrix(-1 0 0 1 27.4468 30.5455)" fill="#EE921A"/>
<rect width="3.19149" height="3.63636" transform="matrix(-1 0 0 1 27.4468 26.9091)" fill="#EE921A"/>
<rect width="3.19149" height="3.63636" transform="matrix(-1 0 0 1 27.4468 26.9091)" fill="#EE921A"/>
<rect width="3.19149" height="3.63636" transform="matrix(-1 0 0 1 27.4468 26.9091)" fill="#EE921A"/>
<rect width="3.19149" height="3.63636" transform="matrix(-1 0 0 1 27.4468 26.9091)" fill="#EE921A"/>
<rect width="3.19149" height="3.63636" transform="matrix(-1 0 0 1 30.6383 26.9091)" fill="#EE921A"/>
<rect width="3.19149" height="3.63636" transform="matrix(-1 0 0 1 30.6383 26.9091)" fill="#EE921A"/>
<rect width="3.19149" height="3.63636" transform="matrix(-1 0 0 1 30.6383 26.9091)" fill="#EE921A"/>
<rect width="3.19149" height="3.63636" transform="matrix(-1 0 0 1 30.6383 26.9091)" fill="#EE921A"/>
<rect width="3.19149" height="3.63636" transform="matrix(-1 0 0 1 30 23.2727)" fill="#EE921A"/>
<rect width="3.19149" height="3.63636" transform="matrix(-1 0 0 1 30 23.2727)" fill="#EE921A"/>
<rect width="3.19149" height="3.63636" transform="matrix(-1 0 0 1 30 23.2727)" fill="#EE921A"/>
<rect width="3.19149" height="3.63636" transform="matrix(-1 0 0 1 30 23.2727)" fill="#EE921A"/>
<rect width="3.19149" height="3.63636" transform="matrix(-1 0 0 1 33.1915 24)" fill="#EE921A"/>
<rect width="3.19149" height="3.63636" transform="matrix(-1 0 0 1 33.1915 24)" fill="#EE921A"/>
<rect width="3.19149" height="3.63636" transform="matrix(-1 0 0 1 33.1915 24)" fill="#EE921A"/>
<rect width="3.19149" height="3.63636" transform="matrix(-1 0 0 1 33.1915 24)" fill="#EE921A"/>
<rect width="3.19149" height="3.63636" transform="matrix(-1 0 0 1 33.1915 20.3636)" fill="#EE921A"/>
<rect width="3.19149" height="3.63636" transform="matrix(-1 0 0 1 33.1915 20.3636)" fill="#EE921A"/>
<rect width="3.19149" height="3.63636" transform="matrix(-1 0 0 1 33.1915 20.3636)" fill="#EE921A"/>
<rect width="3.19149" height="3.63636" transform="matrix(-1 0 0 1 33.1915 20.3636)" fill="#EE921A"/>
<rect width="3.19149" height="3.63636" transform="matrix(-1 0 0 1 42.1277 26.9091)" fill="#EE921A"/>
<rect width="3.19149" height="3.63636" transform="matrix(-1 0 0 1 42.1277 26.9091)" fill="#EE921A"/>
<rect width="3.19149" height="3.63636" transform="matrix(-1 0 0 1 42.1277 26.9091)" fill="#EE921A"/>
<rect width="3.19149" height="3.63636" transform="matrix(-1 0 0 1 42.1277 26.9091)" fill="#EE921A"/>
<rect width="3.19149" height="3.63637" transform="matrix(-1 0 0 1 45.9575 30.5455)" fill="#EE921A"/>
<rect width="3.19149" height="3.63637" transform="matrix(-1 0 0 1 45.9575 30.5455)" fill="#EE921A"/>
<rect width="3.19149" height="3.63637" transform="matrix(-1 0 0 1 45.9575 30.5455)" fill="#EE921A"/>
<rect width="3.19149" height="3.63637" transform="matrix(-1 0 0 1 45.9575 30.5455)" fill="#EE921A"/>
<rect width="3.19149" height="3.63636" transform="matrix(-1 0 0 1 49.1489 32)" fill="#EE921A"/>
<rect width="3.19149" height="3.63636" transform="matrix(-1 0 0 1 49.1489 32)" fill="#EE921A"/>
<rect width="3.19149" height="3.63636" transform="matrix(-1 0 0 1 49.1489 32)" fill="#EE921A"/>
<rect width="3.19149" height="3.63636" transform="matrix(-1 0 0 1 49.1489 32)" fill="#EE921A"/>
<rect width="3.19149" height="3.63636" transform="matrix(-1 0 0 1 51.0638 34.1818)" fill="#EE921A"/>
<rect width="3.19149" height="3.63636" transform="matrix(-1 0 0 1 51.0638 34.1818)" fill="#EE921A"/>
<rect width="3.19149" height="3.63636" transform="matrix(-1 0 0 1 51.0638 34.1818)" fill="#EE921A"/>
<rect width="3.19149" height="3.63636" transform="matrix(-1 0 0 1 51.0638 34.1818)" fill="#EE921A"/>
<rect width="3.19149" height="3.63636" transform="matrix(-1 0 0 1 44.0425 29.0909)" fill="#EE921A"/>
<rect width="3.19149" height="3.63636" transform="matrix(-1 0 0 1 44.0425 29.0909)" fill="#EE921A"/>
<rect width="3.19149" height="3.63636" transform="matrix(-1 0 0 1 44.0425 29.0909)" fill="#EE921A"/>
<rect width="3.19149" height="3.63636" transform="matrix(-1 0 0 1 44.0425 29.0909)" fill="#EE921A"/>
<rect width="3.19149" height="3.63636" transform="matrix(-1 0 0 1 54.2553 35.6364)" fill="#EE921A"/>
<rect width="3.19149" height="3.63636" transform="matrix(-1 0 0 1 54.2553 35.6364)" fill="#EE921A"/>
<rect width="3.19149" height="3.63636" transform="matrix(-1 0 0 1 54.2553 35.6364)" fill="#EE921A"/>
<rect width="3.19149" height="3.63636" transform="matrix(-1 0 0 1 54.2553 35.6364)" fill="#EE921A"/>
<rect width="3.19149" height="3.63636" transform="matrix(-1 0 0 1 57.4468 37.0909)" fill="#EE921A"/>
<rect width="3.19149" height="3.63636" transform="matrix(-1 0 0 1 57.4468 37.0909)" fill="#EE921A"/>
<rect width="3.19149" height="3.63636" transform="matrix(-1 0 0 1 57.4468 37.0909)" fill="#EE921A"/>
<rect width="3.19149" height="3.63636" transform="matrix(-1 0 0 1 57.4468 37.0909)" fill="#EE921A"/>
<rect width="3.19149" height="3.63636" transform="matrix(-1 0 0 1 33.1915 20.3636)" fill="#EE921A"/>
<rect width="3.19149" height="3.63636" transform="matrix(-1 0 0 1 33.1915 20.3636)" fill="#EE921A"/>
<rect width="3.19149" height="3.63636" transform="matrix(-1 0 0 1 33.1915 20.3636)" fill="#EE921A"/>
<rect width="3.19149" height="3.63636" transform="matrix(-1 0 0 1 33.1915 20.3636)" fill="#EE921A"/>
<rect width="3.19149" height="3.63636" transform="matrix(-1 0 0 1 33.1915 16.7273)" fill="#EE921A"/>
<rect width="3.19149" height="3.63636" transform="matrix(-1 0 0 1 33.1915 16.7273)" fill="#EE921A"/>
<rect width="3.19149" height="3.63636" transform="matrix(-1 0 0 1 33.1915 16.7273)" fill="#EE921A"/>
<rect width="3.19149" height="3.63636" transform="matrix(-1 0 0 1 33.1915 16.7273)" fill="#EE921A"/>
<rect width="3.19149" height="3.63636" transform="matrix(-1 0 0 1 33.1915 13.0909)" fill="#EE921A"/>
<rect width="3.19149" height="3.63636" transform="matrix(-1 0 0 1 33.1915 13.0909)" fill="#EE921A"/>
<rect width="3.19149" height="3.63636" transform="matrix(-1 0 0 1 33.1915 13.0909)" fill="#EE921A"/>
<rect width="3.19149" height="3.63636" transform="matrix(-1 0 0 1 33.1915 13.0909)" fill="#EE921A"/>
<rect width="3.19149" height="3.63636" transform="matrix(-1 0 0 1 33.1915 9.45454)" fill="#EE921A"/>
<rect width="3.19149" height="3.63636" transform="matrix(-1 0 0 1 33.1915 9.45454)" fill="#EE921A"/>
<rect width="3.19149" height="3.63636" transform="matrix(-1 0 0 1 33.1915 9.45454)" fill="#EE921A"/>
<rect width="3.19149" height="3.63636" transform="matrix(-1 0 0 1 33.1915 9.45454)" fill="#EE921A"/>
<rect width="3.19149" height="3.63636" transform="matrix(-1 0 0 1 30 10.1818)" fill="#EE921A"/>
<rect width="3.19149" height="3.63636" transform="matrix(-1 0 0 1 30 10.1818)" fill="#EE921A"/>
<rect width="3.19149" height="3.63636" transform="matrix(-1 0 0 1 30 10.1818)" fill="#EE921A"/>
<rect width="3.19149" height="3.63636" transform="matrix(-1 0 0 1 30 10.1818)" fill="#EE921A"/>
<rect width="3.19149" height="3.63636" transform="matrix(-1 0 0 1 30 6.54546)" fill="#EE921A"/>
<rect width="3.19149" height="3.63636" transform="matrix(-1 0 0 1 30 6.54546)" fill="#EE921A"/>
<rect width="3.19149" height="3.63636" transform="matrix(-1 0 0 1 30 6.54546)" fill="#EE921A"/>
<rect width="3.19149" height="3.63636" transform="matrix(-1 0 0 1 30 6.54546)" fill="#EE921A"/>
<rect width="3.19149" height="3.63636" transform="matrix(-1 0 0 1 27.4468 6.54546)" fill="#EE921A"/>
<rect width="3.19149" height="3.63636" transform="matrix(-1 0 0 1 27.4468 6.54546)" fill="#EE921A"/>
<rect width="3.19149" height="3.63636" transform="matrix(-1 0 0 1 27.4468 6.54546)" fill="#EE921A"/>
<rect width="3.19149" height="3.63636" transform="matrix(-1 0 0 1 27.4468 6.54546)" fill="#EE921A"/>
<rect width="3.19149" height="3.63636" transform="matrix(-1 0 0 1 27.4468 3.63637)" fill="#EE921A"/>
<rect width="3.19149" height="3.63636" transform="matrix(-1 0 0 1 27.4468 3.63637)" fill="#EE921A"/>
<rect width="3.19149" height="3.63636" transform="matrix(-1 0 0 1 27.4468 3.63637)" fill="#EE921A"/>
<rect width="3.19149" height="3.63636" transform="matrix(-1 0 0 1 27.4468 3.63637)" fill="#EE921A"/>
<rect width="3.19149" height="3.63636" transform="matrix(-1 0 0 1 24.2553 3.63637)" fill="#EE921A"/>
<rect width="3.19149" height="3.63636" transform="matrix(-1 0 0 1 24.2553 3.63637)" fill="#EE921A"/>
<rect width="3.19149" height="3.63636" transform="matrix(-1 0 0 1 24.2553 3.63637)" fill="#EE921A"/>
<rect width="3.19149" height="3.63636" transform="matrix(-1 0 0 1 24.2553 3.63637)" fill="#EE921A"/>
<rect width="3.19149" height="3.63636" transform="matrix(-1 0 0 1 21.0638 3.63637)" fill="#EE921A"/>
<rect width="3.19149" height="3.63636" transform="matrix(-1 0 0 1 21.0638 3.63637)" fill="#EE921A"/>
<rect width="3.19149" height="3.63636" transform="matrix(-1 0 0 1 21.0638 3.63637)" fill="#EE921A"/>
<rect width="3.19149" height="3.63636" transform="matrix(-1 0 0 1 21.0638 3.63637)" fill="#7D84FF"/>
<rect width="3.19149" height="3.63636" transform="matrix(-1 0 0 1 17.8723 3.63637)" fill="#EE921A"/>
<rect width="3.19149" height="3.63636" transform="matrix(-1 0 0 1 17.8723 3.63637)" fill="#EE921A"/>
<rect width="3.19149" height="3.63636" transform="matrix(-1 0 0 1 17.8723 3.63637)" fill="#EE921A"/>
<rect width="3.19149" height="3.63636" transform="matrix(-1 0 0 1 17.8723 3.63637)" fill="#7D84FF"/>
<rect width="3.19149" height="3.63636" transform="matrix(-1 0 0 1 15.3192 3.63637)" fill="#EE921A"/>
<rect width="3.19149" height="3.63636" transform="matrix(-1 0 0 1 15.3192 3.63637)" fill="#EE921A"/>
<rect width="3.19149" height="3.63636" transform="matrix(-1 0 0 1 15.3192 3.63637)" fill="#EE921A"/>
<rect width="3.19149" height="3.63636" transform="matrix(-1 0 0 1 15.3192 3.63637)" fill="#7D84FF"/>
<rect width="3.19149" height="3.63636" transform="matrix(-1 0 0 1 24.2553 7.27272)" fill="#EE921A"/>
<rect width="3.19149" height="3.63636" transform="matrix(-1 0 0 1 24.2553 7.27272)" fill="#EE921A"/>
<rect width="3.19149" height="3.63636" transform="matrix(-1 0 0 1 24.2553 7.27272)" fill="#EE921A"/>
<rect width="3.19149" height="3.63636" transform="matrix(-1 0 0 1 24.2553 7.27272)" fill="#7D84FF"/>
<rect width="3.19149" height="3.63636" transform="matrix(-1 0 0 1 17.2341 7.27272)" fill="#EE921A"/>
<rect width="3.19149" height="3.63636" transform="matrix(-1 0 0 1 17.2341 7.27272)" fill="#EE921A"/>
<rect width="3.19149" height="3.63636" transform="matrix(-1 0 0 1 17.2341 7.27272)" fill="#EE921A"/>
<rect width="3.19149" height="3.63636" transform="matrix(-1 0 0 1 17.2341 7.27272)" fill="#A2D8FF"/>
<rect width="3.19149" height="3.63636" transform="matrix(-1 0 0 1 17.2341 7.27272)" fill="#A2D8FF"/>
<rect width="3.19149" height="3.63636" transform="matrix(-1 0 0 1 17.2341 7.27272)" fill="#A2D8FF"/>
<rect width="3.19149" height="3.63636" transform="matrix(-1 0 0 1 17.2341 7.27272)" fill="#A2D8FF"/>
<rect width="3.19149" height="3.63636" transform="matrix(-1 0 0 1 17.2341 7.27272)" fill="#A2D8FF"/>
<rect width="3.19149" height="3.63636" transform="matrix(-1 0 0 1 15.3192 8.72728)" fill="#EE921A"/>
<rect width="3.19149" height="3.63636" transform="matrix(-1 0 0 1 15.3192 8.72728)" fill="#EE921A"/>
<rect width="3.19149" height="3.63636" transform="matrix(-1 0 0 1 15.3192 8.72728)" fill="#EE921A"/>
<rect width="3.19149" height="3.63636" transform="matrix(-1 0 0 1 15.3192 8.72728)" fill="#A2D8FF"/>
<rect width="3.19149" height="3.63636" transform="matrix(-1 0 0 1 15.3192 8.72728)" fill="#A2D8FF"/>
<rect width="3.19149" height="3.63636" transform="matrix(-1 0 0 1 15.3192 8.72728)" fill="#A2D8FF"/>
<rect width="3.19149" height="3.63636" transform="matrix(-1 0 0 1 15.3192 8.72728)" fill="#A2D8FF"/>
<rect width="3.19149" height="3.63636" transform="matrix(-1 0 0 1 15.3192 8.72728)" fill="#A2D8FF"/>
<rect width="3.19149" height="3.63636" transform="matrix(-1 0 0 1 14.0425 10.9091)" fill="#EE921A"/>
<rect width="3.19149" height="3.63636" transform="matrix(-1 0 0 1 14.0425 10.9091)" fill="#EE921A"/>
<rect width="3.19149" height="3.63636" transform="matrix(-1 0 0 1 14.0425 10.9091)" fill="#EE921A"/>
<rect width="3.19149" height="3.63636" transform="matrix(-1 0 0 1 14.0425 10.9091)" fill="#A2D8FF"/>
<rect width="3.19149" height="3.63636" transform="matrix(-1 0 0 1 14.0425 10.9091)" fill="#A2D8FF"/>
<rect width="3.19149" height="3.63636" transform="matrix(-1 0 0 1 14.0425 10.9091)" fill="#A2D8FF"/>
<rect width="3.19149" height="3.63636" transform="matrix(-1 0 0 1 14.0425 10.9091)" fill="#A2D8FF"/>
<rect width="3.19149" height="3.63636" transform="matrix(-1 0 0 1 14.0425 10.9091)" fill="#A2D8FF"/>
<rect width="3.19149" height="3.63636" transform="matrix(-1 0 0 1 12.1277 13.0909)" fill="#EE921A"/>
<rect width="3.19149" height="3.63636" transform="matrix(-1 0 0 1 12.1277 13.0909)" fill="#EE921A"/>
<rect width="3.19149" height="3.63636" transform="matrix(-1 0 0 1 12.1277 13.0909)" fill="#EE921A"/>
<rect width="3.19149" height="3.63636" transform="matrix(-1 0 0 1 12.1277 13.0909)" fill="#A2D8FF"/>
<rect width="3.19149" height="3.63636" transform="matrix(-1 0 0 1 12.1277 13.0909)" fill="#A2D8FF"/>
<rect width="3.19149" height="3.63636" transform="matrix(-1 0 0 1 12.1277 13.0909)" fill="#A2D8FF"/>
<rect width="3.19149" height="3.63636" transform="matrix(-1 0 0 1 12.1277 13.0909)" fill="#A2D8FF"/>
<rect width="3.19149" height="3.63636" transform="matrix(-1 0 0 1 12.1277 13.0909)" fill="#A2D8FF"/>
<rect width="3.19149" height="3.63636" transform="matrix(-1 0 0 1 10.8511 14.5455)" fill="#EE921A"/>
<rect width="3.19149" height="3.63636" transform="matrix(-1 0 0 1 10.8511 14.5455)" fill="#EE921A"/>
<rect width="3.19149" height="3.63636" transform="matrix(-1 0 0 1 10.8511 14.5455)" fill="#EE921A"/>
<rect width="3.19149" height="3.63636" transform="matrix(-1 0 0 1 10.8511 14.5455)" fill="#A2D8FF"/>
<rect width="3.19149" height="3.63636" transform="matrix(-1 0 0 1 10.8511 14.5455)" fill="#A2D8FF"/>
<rect width="3.19149" height="3.63636" transform="matrix(-1 0 0 1 10.8511 14.5455)" fill="#A2D8FF"/>
<rect width="3.19149" height="3.63636" transform="matrix(-1 0 0 1 10.8511 14.5455)" fill="#A2D8FF"/>
<rect width="3.19149" height="3.63636" transform="matrix(-1 0 0 1 10.8511 14.5455)" fill="#A2D8FF"/>
<rect width="3.19149" height="3.63636" transform="matrix(-1 0 0 1 9.57446 16.7273)" fill="#EE921A"/>
<rect width="3.19149" height="3.63636" transform="matrix(-1 0 0 1 9.57446 16.7273)" fill="#EE921A"/>
<rect width="3.19149" height="3.63636" transform="matrix(-1 0 0 1 9.57446 16.7273)" fill="#EE921A"/>
<rect width="3.19149" height="3.63636" transform="matrix(-1 0 0 1 9.57446 16.7273)" fill="#A2D8FF"/>
<rect width="3.19149" height="3.63636" transform="matrix(-1 0 0 1 9.57446 16.7273)" fill="#A2D8FF"/>
<rect width="3.19149" height="3.63636" transform="matrix(-1 0 0 1 9.57446 16.7273)" fill="#A2D8FF"/>
<rect width="3.19149" height="3.63636" transform="matrix(-1 0 0 1 9.57446 16.7273)" fill="#A2D8FF"/>
<rect width="3.19149" height="3.63636" transform="matrix(-1 0 0 1 9.57446 16.7273)" fill="#A2D8FF"/>
<rect width="3.19149" height="3.63636" transform="matrix(-1 0 0 1 9.57446 19.6364)" fill="#EE921A"/>
<rect width="3.19149" height="3.63636" transform="matrix(-1 0 0 1 9.57446 19.6364)" fill="#EE921A"/>
<rect width="3.19149" height="3.63636" transform="matrix(-1 0 0 1 9.57446 19.6364)" fill="#EE921A"/>
<rect width="3.19149" height="3.63636" transform="matrix(-1 0 0 1 9.57446 19.6364)" fill="#A2D8FF"/>
<rect width="3.19149" height="3.63636" transform="matrix(-1 0 0 1 9.57446 19.6364)" fill="#A2D8FF"/>
<rect width="3.19149" height="3.63636" transform="matrix(-1 0 0 1 9.57446 19.6364)" fill="#A2D8FF"/>
<rect width="3.19149" height="3.63636" transform="matrix(-1 0 0 1 9.57446 19.6364)" fill="#A2D8FF"/>
<rect width="3.19149" height="3.63636" transform="matrix(-1 0 0 1 9.57446 19.6364)" fill="#A2D8FF"/>
<rect width="3.19149" height="3.63636" transform="matrix(-1 0 0 1 11.4894 21.8182)" fill="#EE921A"/>
<rect width="3.19149" height="3.63636" transform="matrix(-1 0 0 1 11.4894 21.8182)" fill="#EE921A"/>
<rect width="3.19149" height="3.63636" transform="matrix(-1 0 0 1 11.4894 21.8182)" fill="#EE921A"/>
<rect width="3.19149" height="3.63636" transform="matrix(-1 0 0 1 11.4894 21.8182)" fill="#A2D8FF"/>
<rect width="3.19149" height="3.63636" transform="matrix(-1 0 0 1 11.4894 21.8182)" fill="#A2D8FF"/>
<rect width="3.19149" height="3.63636" transform="matrix(-1 0 0 1 11.4894 21.8182)" fill="#A2D8FF"/>
<rect width="3.19149" height="3.63636" transform="matrix(-1 0 0 1 11.4894 21.8182)" fill="#A2D8FF"/>
<rect width="3.19149" height="3.63636" transform="matrix(-1 0 0 1 11.4894 21.8182)" fill="#A2D8FF"/>
<rect width="3.19149" height="3.63636" transform="matrix(-1 0 0 1 14.0425 23.2727)" fill="#EE921A"/>
<rect width="3.19149" height="3.63636" transform="matrix(-1 0 0 1 14.0425 23.2727)" fill="#EE921A"/>
<rect width="3.19149" height="3.63636" transform="matrix(-1 0 0 1 14.0425 23.2727)" fill="#EE921A"/>
<rect width="3.19149" height="3.63636" transform="matrix(-1 0 0 1 14.0425 23.2727)" fill="#A2D8FF"/>
<rect width="3.19149" height="3.63636" transform="matrix(-1 0 0 1 14.0425 23.2727)" fill="#A2D8FF"/>
<rect width="3.19149" height="3.63636" transform="matrix(-1 0 0 1 14.0425 23.2727)" fill="#A2D8FF"/>
<rect width="3.19149" height="3.63636" transform="matrix(-1 0 0 1 14.0425 23.2727)" fill="#A2D8FF"/>
<rect width="3.19149" height="3.63636" transform="matrix(-1 0 0 1 14.0425 23.2727)" fill="#A2D8FF"/>
<rect width="3.19149" height="3.63636" transform="matrix(-1 0 0 1 15.9575 25.4545)" fill="#EE921A"/>
<rect width="3.19149" height="3.63636" transform="matrix(-1 0 0 1 15.9575 25.4545)" fill="#EE921A"/>
<rect width="3.19149" height="3.63636" transform="matrix(-1 0 0 1 15.9575 25.4545)" fill="#EE921A"/>
<rect width="3.19149" height="3.63636" transform="matrix(-1 0 0 1 15.9575 25.4545)" fill="#A2D8FF"/>
<rect width="3.19149" height="3.63636" transform="matrix(-1 0 0 1 15.9575 25.4545)" fill="#A2D8FF"/>
<rect width="3.19149" height="3.63636" transform="matrix(-1 0 0 1 15.9575 25.4545)" fill="#A2D8FF"/>
<rect width="3.19149" height="3.63636" transform="matrix(-1 0 0 1 15.9575 25.4545)" fill="#A2D8FF"/>
<rect width="3.19149" height="3.63636" transform="matrix(-1 0 0 1 15.9575 25.4545)" fill="#A2D8FF"/>
<rect width="3.19149" height="3.63636" transform="matrix(-1 0 0 1 17.8723 26.9091)" fill="#EE921A"/>
<rect width="3.19149" height="3.63636" transform="matrix(-1 0 0 1 17.8723 26.9091)" fill="#EE921A"/>
<rect width="3.19149" height="3.63636" transform="matrix(-1 0 0 1 17.8723 26.9091)" fill="#EE921A"/>
<rect width="3.19149" height="3.63636" transform="matrix(-1 0 0 1 17.8723 26.9091)" fill="#A2D8FF"/>
<rect width="3.19149" height="3.63636" transform="matrix(-1 0 0 1 17.8723 26.9091)" fill="#A2D8FF"/>
<rect width="3.19149" height="3.63636" transform="matrix(-1 0 0 1 17.8723 26.9091)" fill="#A2D8FF"/>
<rect width="3.19149" height="3.63636" transform="matrix(-1 0 0 1 17.8723 26.9091)" fill="#A2D8FF"/>
<rect width="3.19149" height="3.63636" transform="matrix(-1 0 0 1 17.8723 26.9091)" fill="#A2D8FF"/>
<rect width="3.19149" height="3.63636" transform="matrix(-1 0 0 1 17.2341 10.9091)" fill="#EE921A"/>
<rect width="3.19149" height="3.63636" transform="matrix(-1 0 0 1 17.2341 10.9091)" fill="#EE921A"/>
<rect width="3.19149" height="3.63636" transform="matrix(-1 0 0 1 17.2341 10.9091)" fill="#EE921A"/>
<rect width="3.19149" height="3.63636" transform="matrix(-1 0 0 1 17.2341 10.9091)" fill="#A2D8FF"/>
<rect width="3.19149" height="3.63636" transform="matrix(-1 0 0 1 17.2341 10.9091)" fill="#A2D8FF"/>
<rect width="3.19149" height="3.63636" transform="matrix(-1 0 0 1 17.2341 10.9091)" fill="#A2D8FF"/>
<rect width="3.19149" height="3.63636" transform="matrix(-1 0 0 1 17.2341 10.9091)" fill="#A2D8FF"/>
<rect width="3.19149" height="3.63636" transform="matrix(-1 0 0 1 17.2341 10.9091)" fill="#A2D8FF"/>
<rect width="3.19149" height="3.63636" transform="matrix(-1 0 0 1 15.3192 13.0909)" fill="#EE921A"/>
<rect width="3.19149" height="3.63636" transform="matrix(-1 0 0 1 15.3192 13.0909)" fill="#EE921A"/>
<rect width="3.19149" height="3.63636" transform="matrix(-1 0 0 1 15.3192 13.0909)" fill="#EE921A"/>
<rect width="3.19149" height="3.63636" transform="matrix(-1 0 0 1 15.3192 13.0909)" fill="#A2D8FF"/>
<rect width="3.19149" height="3.63636" transform="matrix(-1 0 0 1 15.3192 13.0909)" fill="#A2D8FF"/>
<rect width="3.19149" height="3.63636" transform="matrix(-1 0 0 1 15.3192 13.0909)" fill="#A2D8FF"/>
<rect width="3.19149" height="3.63636" transform="matrix(-1 0 0 1 15.3192 13.0909)" fill="#A2D8FF"/>
<rect width="3.19149" height="3.63636" transform="matrix(-1 0 0 1 15.3192 13.0909)" fill="#A2D8FF"/>
<path d="M13.4042 15.2727H10.2127V18.9091H13.4042V15.2727Z" fill="#EE921A"/>
<path d="M13.4042 15.2727H10.2127V18.9091H13.4042V15.2727Z" fill="#EE921A"/>
<path d="M13.4042 15.2727H10.2127V18.9091H13.4042V15.2727Z" fill="#EE921A"/>
<path d="M13.4042 15.2727H10.2127V18.9091H13.4042V15.2727Z" fill="#A2D8FF"/>
<path d="M13.4042 15.2727H10.2127V18.9091H13.4042V15.2727Z" fill="#A2D8FF"/>
<path d="M13.4042 15.2727H10.2127V18.9091H13.4042V15.2727Z" fill="#A2D8FF"/>
<path d="M13.4042 15.2727H10.2127V18.9091H13.4042V15.2727Z" fill="#A2F1FF"/>
<path d="M13.4042 15.2727H10.2127V18.9091H13.4042V15.2727Z" fill="white"/>
<rect width="3.19149" height="3.63636" transform="matrix(-1 0 0 1 12.1277 18.1818)" fill="#EE921A"/>
<rect width="3.19149" height="3.63636" transform="matrix(-1 0 0 1 12.1277 18.1818)" fill="#EE921A"/>
<rect width="3.19149" height="3.63636" transform="matrix(-1 0 0 1 12.1277 18.1818)" fill="#EE921A"/>
<rect width="3.19149" height="3.63636" transform="matrix(-1 0 0 1 12.1277 18.1818)" fill="#A2D8FF"/>
<rect width="3.19149" height="3.63636" transform="matrix(-1 0 0 1 12.1277 18.1818)" fill="#A2D8FF"/>
<rect width="3.19149" height="3.63636" transform="matrix(-1 0 0 1 12.1277 18.1818)" fill="#A2D8FF"/>
<rect width="3.19149" height="3.63636" transform="matrix(-1 0 0 1 12.1277 18.1818)" fill="#A2D8FF"/>
<rect width="3.19149" height="3.63636" transform="matrix(-1 0 0 1 12.1277 18.1818)" fill="#A2D8FF"/>
<rect width="3.19149" height="3.63636" transform="matrix(-1 0 0 1 15.9575 14.5455)" fill="#EE921A"/>
<rect width="3.19149" height="3.63636" transform="matrix(-1 0 0 1 15.9575 14.5455)" fill="#EE921A"/>
<rect width="3.19149" height="3.63636" transform="matrix(-1 0 0 1 15.9575 14.5455)" fill="#EE921A"/>
<rect width="3.19149" height="3.63636" transform="matrix(-1 0 0 1 15.9575 14.5455)" fill="#A2D8FF"/>
<rect width="3.19149" height="3.63636" transform="matrix(-1 0 0 1 15.9575 14.5455)" fill="#A2D8FF"/>
<rect width="3.19149" height="3.63636" transform="matrix(-1 0 0 1 15.9575 14.5455)" fill="#A2D8FF"/>
<rect width="3.19149" height="3.63636" transform="matrix(-1 0 0 1 15.9575 14.5455)" fill="#A2D8FF"/>
<rect width="3.19149" height="3.63636" transform="matrix(-1 0 0 1 15.9575 14.5455)" fill="#A2D8FF"/>
<rect width="3.19149" height="3.63636" transform="matrix(-1 0 0 1 15.3192 18.1818)" fill="#EE921A"/>
<rect width="3.19149" height="3.63636" transform="matrix(-1 0 0 1 15.3192 18.1818)" fill="#EE921A"/>
<rect width="3.19149" height="3.63636" transform="matrix(-1 0 0 1 15.3192 18.1818)" fill="#EE921A"/>
<rect width="3.19149" height="3.63636" transform="matrix(-1 0 0 1 15.3192 18.1818)" fill="#A2D8FF"/>
<rect width="3.19149" height="3.63636" transform="matrix(-1 0 0 1 15.3192 18.1818)" fill="#A2D8FF"/>
<rect width="3.19149" height="3.63636" transform="matrix(-1 0 0 1 15.3192 18.1818)" fill="#A2D8FF"/>
<rect width="3.19149" height="3.63636" transform="matrix(-1 0 0 1 15.3192 18.1818)" fill="#A2D8FF"/>
<rect width="3.19149" height="3.63636" transform="matrix(-1 0 0 1 15.3192 18.1818)" fill="#A2D8FF"/>
<rect width="3.19149" height="3.63636" transform="matrix(-1 0 0 1 17.8723 8)" fill="#EE921A"/>
<rect width="3.19149" height="3.63636" transform="matrix(-1 0 0 1 17.8723 8)" fill="#EE921A"/>
<rect width="3.19149" height="3.63636" transform="matrix(-1 0 0 1 17.8723 8)" fill="#EE921A"/>
<rect width="3.19149" height="3.63636" transform="matrix(-1 0 0 1 17.8723 8)" fill="#A2D8FF"/>
<rect width="3.19149" height="3.63636" transform="matrix(-1 0 0 1 17.8723 8)" fill="#A2D8FF"/>
<rect width="3.19149" height="3.63636" transform="matrix(-1 0 0 1 17.8723 8)" fill="#A2D8FF"/>
<rect width="3.19149" height="3.63636" transform="matrix(-1 0 0 1 17.8723 8)" fill="#A2D8FF"/>
<rect width="3.19149" height="3.63636" transform="matrix(-1 0 0 1 17.8723 8)" fill="#A2D8FF"/>
<rect width="3.19149" height="3.63636" transform="matrix(-1 0 0 1 20.4255 7.27272)" fill="#EE921A"/>
<rect width="3.19149" height="3.63636" transform="matrix(-1 0 0 1 20.4255 7.27272)" fill="#EE921A"/>
<rect width="3.19149" height="3.63636" transform="matrix(-1 0 0 1 20.4255 7.27272)" fill="#EE921A"/>
<rect width="3.19149" height="3.63636" transform="matrix(-1 0 0 1 20.4255 7.27272)" fill="#A2D8FF"/>
<rect width="3.19149" height="3.63636" transform="matrix(-1 0 0 1 20.4255 7.27272)" fill="#A2D8FF"/>
<rect width="3.19149" height="3.63636" transform="matrix(-1 0 0 1 20.4255 7.27272)" fill="#A2D8FF"/>
<rect width="3.19149" height="3.63636" transform="matrix(-1 0 0 1 20.4255 7.27272)" fill="#A2D8FF"/>
<rect width="3.19149" height="3.63636" transform="matrix(-1 0 0 1 20.4255 7.27272)" fill="#A2F1FF"/>
<rect width="3.19149" height="3.63636" transform="matrix(-1 0 0 1 20.4255 7.27272)" fill="#A2F1FF"/>
<rect width="3.19149" height="3.63636" transform="matrix(-1 0 0 1 20.4255 7.27272)" fill="#A2F1FF"/>
<rect width="3.19149" height="3.63636" transform="matrix(-1 0 0 1 20.4255 7.27272)" fill="#A2F1FF"/>
<rect width="3.82979" height="3.63636" transform="matrix(-1 0 0 1 19.7872 10.9091)" fill="#EE921A"/>
<rect width="3.82979" height="3.63636" transform="matrix(-1 0 0 1 19.7872 10.9091)" fill="#EE921A"/>
<rect width="3.82979" height="3.63636" transform="matrix(-1 0 0 1 19.7872 10.9091)" fill="#EE921A"/>
<rect width="3.82979" height="3.63636" transform="matrix(-1 0 0 1 19.7872 10.9091)" fill="#A2D8FF"/>
<rect width="3.82979" height="3.63636" transform="matrix(-1 0 0 1 19.7872 10.9091)" fill="#A2D8FF"/>
<rect width="3.82979" height="3.63636" transform="matrix(-1 0 0 1 19.7872 10.9091)" fill="#A2D8FF"/>
<rect width="3.82979" height="3.63636" transform="matrix(-1 0 0 1 19.7872 10.9091)" fill="#A2D8FF"/>
<rect width="3.82979" height="3.63636" transform="matrix(-1 0 0 1 19.7872 10.9091)" fill="#A2F1FF"/>
<rect width="3.82979" height="3.63636" transform="matrix(-1 0 0 1 19.7872 10.9091)" fill="#A2F1FF"/>
<rect width="3.82979" height="3.63636" transform="matrix(-1 0 0 1 19.7872 10.9091)" fill="#A2F1FF"/>
<rect width="3.82979" height="3.63636" transform="matrix(-1 0 0 1 19.7872 10.9091)" fill="#A2F1FF"/>
<rect width="4.46809" height="3.63636" transform="matrix(-1 0 0 1 19.1489 14.5455)" fill="#EE921A"/>
<rect width="4.46809" height="3.63636" transform="matrix(-1 0 0 1 19.1489 14.5455)" fill="#EE921A"/>
<rect width="4.46809" height="3.63636" transform="matrix(-1 0 0 1 19.1489 14.5455)" fill="#EE921A"/>
<rect width="4.46809" height="3.63636" transform="matrix(-1 0 0 1 19.1489 14.5455)" fill="#A2D8FF"/>
<rect width="4.46809" height="3.63636" transform="matrix(-1 0 0 1 19.1489 14.5455)" fill="#A2D8FF"/>
<rect width="4.46809" height="3.63636" transform="matrix(-1 0 0 1 19.1489 14.5455)" fill="#A2D8FF"/>
<rect width="4.46809" height="3.63636" transform="matrix(-1 0 0 1 19.1489 14.5455)" fill="#A2D8FF"/>
<rect width="4.46809" height="3.63636" transform="matrix(-1 0 0 1 19.1489 14.5455)" fill="#A2F1FF"/>
<rect width="4.46809" height="3.63636" transform="matrix(-1 0 0 1 19.1489 14.5455)" fill="#A2F1FF"/>
<rect width="4.46809" height="3.63636" transform="matrix(-1 0 0 1 19.1489 14.5455)" fill="#A2F1FF"/>
<rect width="4.46809" height="3.63636" transform="matrix(-1 0 0 1 19.1489 14.5455)" fill="#A2F1FF"/>
<rect width="3.19149" height="3.63636" transform="matrix(-1 0 0 1 18.5106 18.1818)" fill="#EE921A"/>
<rect width="3.19149" height="3.63636" transform="matrix(-1 0 0 1 18.5106 18.1818)" fill="#EE921A"/>
<rect width="3.19149" height="3.63636" transform="matrix(-1 0 0 1 18.5106 18.1818)" fill="#EE921A"/>
<rect width="3.19149" height="3.63636" transform="matrix(-1 0 0 1 18.5106 18.1818)" fill="#A2D8FF"/>
<rect width="3.19149" height="3.63636" transform="matrix(-1 0 0 1 18.5106 18.1818)" fill="#A2D8FF"/>
<rect width="3.19149" height="3.63636" transform="matrix(-1 0 0 1 18.5106 18.1818)" fill="#A2D8FF"/>
<rect width="3.19149" height="3.63636" transform="matrix(-1 0 0 1 18.5106 18.1818)" fill="#A2D8FF"/>
<rect width="3.19149" height="3.63636" transform="matrix(-1 0 0 1 18.5106 18.1818)" fill="#A2F1FF"/>
<rect width="3.19149" height="3.63636" transform="matrix(-1 0 0 1 18.5106 18.1818)" fill="#A2F1FF"/>
<rect width="3.19149" height="3.63636" transform="matrix(-1 0 0 1 18.5106 18.1818)" fill="#A2F1FF"/>
<rect width="3.19149" height="3.63636" transform="matrix(-1 0 0 1 18.5106 18.1818)" fill="#A2F1FF"/>
<rect width="3.19149" height="3.63636" transform="matrix(-1 0 0 1 17.2341 21.8182)" fill="#EE921A"/>
<rect width="3.19149" height="3.63636" transform="matrix(-1 0 0 1 17.2341 21.8182)" fill="#EE921A"/>
<rect width="3.19149" height="3.63636" transform="matrix(-1 0 0 1 17.2341 21.8182)" fill="#EE921A"/>
<rect width="3.19149" height="3.63636" transform="matrix(-1 0 0 1 17.2341 21.8182)" fill="#A2D8FF"/>
<rect width="3.19149" height="3.63636" transform="matrix(-1 0 0 1 17.2341 21.8182)" fill="#A2D8FF"/>
<rect width="3.19149" height="3.63636" transform="matrix(-1 0 0 1 17.2341 21.8182)" fill="#A2D8FF"/>
<rect width="3.19149" height="3.63636" transform="matrix(-1 0 0 1 17.2341 21.8182)" fill="#A2D8FF"/>
<rect width="3.19149" height="3.63636" transform="matrix(-1 0 0 1 17.2341 21.8182)" fill="#A2F1FF"/>
<rect width="3.19149" height="3.63636" transform="matrix(-1 0 0 1 17.2341 21.8182)" fill="#A2F1FF"/>
<rect width="3.19149" height="3.63636" transform="matrix(-1 0 0 1 17.2341 21.8182)" fill="#A2F1FF"/>
<rect width="3.19149" height="3.63636" transform="matrix(-1 0 0 1 17.2341 21.8182)" fill="#A2F1FF"/>
<rect width="3.19149" height="3.63636" transform="matrix(-1 0 0 1 22.3405 7.27272)" fill="#EE921A"/>
<rect width="3.19149" height="3.63636" transform="matrix(-1 0 0 1 22.3405 7.27272)" fill="#EE921A"/>
<rect width="3.19149" height="3.63636" transform="matrix(-1 0 0 1 22.3405 7.27272)" fill="#EE921A"/>
<rect width="3.19149" height="3.63636" transform="matrix(-1 0 0 1 22.3405 7.27272)" fill="#A2D8FF"/>
<rect width="3.19149" height="3.63636" transform="matrix(-1 0 0 1 22.3405 7.27272)" fill="#A2D8FF"/>
<rect width="3.19149" height="3.63636" transform="matrix(-1 0 0 1 22.3405 7.27272)" fill="#A2D8FF"/>
<rect width="3.19149" height="3.63636" transform="matrix(-1 0 0 1 22.3405 7.27272)" fill="#A2D8FF"/>
<rect width="3.19149" height="3.63636" transform="matrix(-1 0 0 1 22.3405 7.27272)" fill="#A2F1FF"/>
<rect width="3.19149" height="3.63636" transform="matrix(-1 0 0 1 22.3405 7.27272)" fill="#A2F1FF"/>
<rect width="3.19149" height="3.63636" transform="matrix(-1 0 0 1 22.3405 7.27272)" fill="#A2F1FF"/>
<rect width="3.19149" height="3.63636" transform="matrix(-1 0 0 1 22.3405 7.27272)" fill="#A2F1FF"/>
<rect width="3.19149" height="3.63636" transform="matrix(-1 0 0 1 22.9787 10.9091)" fill="#EE921A"/>
<rect width="3.19149" height="3.63636" transform="matrix(-1 0 0 1 22.9787 10.9091)" fill="#EE921A"/>
<rect width="3.19149" height="3.63636" transform="matrix(-1 0 0 1 22.9787 10.9091)" fill="#EE921A"/>
<rect width="3.19149" height="3.63636" transform="matrix(-1 0 0 1 22.9787 10.9091)" fill="#A2D8FF"/>
<rect width="3.19149" height="3.63636" transform="matrix(-1 0 0 1 22.9787 10.9091)" fill="#A2D8FF"/>
<rect width="3.19149" height="3.63636" transform="matrix(-1 0 0 1 22.9787 10.9091)" fill="#A2D8FF"/>
<rect width="3.19149" height="3.63636" transform="matrix(-1 0 0 1 22.9787 10.9091)" fill="#A2D8FF"/>
<rect width="3.19149" height="3.63636" transform="matrix(-1 0 0 1 22.9787 10.9091)" fill="#A2F1FF"/>
<rect width="3.19149" height="3.63636" transform="matrix(-1 0 0 1 22.9787 10.9091)" fill="#A2F1FF"/>
<rect width="3.19149" height="3.63636" transform="matrix(-1 0 0 1 22.9787 10.9091)" fill="#A2F1FF"/>
<rect width="3.19149" height="3.63636" transform="matrix(-1 0 0 1 22.9787 10.9091)" fill="#A2F1FF"/>
<rect width="3.19149" height="3.63636" transform="matrix(-1 0 0 1 23.617 10.9091)" fill="#EE921A"/>
<rect width="3.19149" height="3.63636" transform="matrix(-1 0 0 1 23.617 10.9091)" fill="#EE921A"/>
<rect width="3.19149" height="3.63636" transform="matrix(-1 0 0 1 23.617 10.9091)" fill="#EE921A"/>
<rect width="3.19149" height="3.63636" transform="matrix(-1 0 0 1 23.617 10.9091)" fill="#A2D8FF"/>
<rect width="3.19149" height="3.63636" transform="matrix(-1 0 0 1 23.617 10.9091)" fill="#A2D8FF"/>
<rect width="3.19149" height="3.63636" transform="matrix(-1 0 0 1 23.617 10.9091)" fill="#A2D8FF"/>
<rect width="3.19149" height="3.63636" transform="matrix(-1 0 0 1 23.617 10.9091)" fill="#A2D8FF"/>
<rect width="3.19149" height="3.63636" transform="matrix(-1 0 0 1 23.617 10.9091)" fill="#A2F1FF"/>
<rect width="3.19149" height="3.63636" transform="matrix(-1 0 0 1 23.617 10.9091)" fill="#A2F1FF"/>
<rect width="3.19149" height="3.63636" transform="matrix(-1 0 0 1 23.617 10.9091)" fill="#A2F1FF"/>
<rect width="3.19149" height="3.63636" transform="matrix(-1 0 0 1 23.617 10.9091)" fill="#A2F1FF"/>
<rect width="3.19149" height="3.63636" transform="matrix(-1 0 0 1 24.8936 13.0909)" fill="#EE921A"/>
<rect width="3.19149" height="3.63636" transform="matrix(-1 0 0 1 24.8936 13.0909)" fill="#EE921A"/>
<rect width="3.19149" height="3.63636" transform="matrix(-1 0 0 1 24.8936 13.0909)" fill="#EE921A"/>
<rect width="3.19149" height="3.63636" transform="matrix(-1 0 0 1 24.8936 13.0909)" fill="#A2D8FF"/>
<rect width="3.19149" height="3.63636" transform="matrix(-1 0 0 1 24.8936 13.0909)" fill="#A2D8FF"/>
<rect width="3.19149" height="3.63636" transform="matrix(-1 0 0 1 24.8936 13.0909)" fill="#A2D8FF"/>
<rect width="3.19149" height="3.63636" transform="matrix(-1 0 0 1 24.8936 13.0909)" fill="#A2D8FF"/>
<rect width="3.19149" height="3.63636" transform="matrix(-1 0 0 1 24.8936 13.0909)" fill="#A2F1FF"/>
<rect width="3.19149" height="3.63636" transform="matrix(-1 0 0 1 24.8936 13.0909)" fill="#A2F1FF"/>
<rect width="3.19149" height="3.63636" transform="matrix(-1 0 0 1 24.8936 13.0909)" fill="#A2F1FF"/>
<rect width="3.19149" height="3.63636" transform="matrix(-1 0 0 1 24.8936 13.0909)" fill="#A2F1FF"/>
<rect width="3.19149" height="3.63636" transform="matrix(-1 0 0 1 21.7021 14.5455)" fill="#EE921A"/>
<rect width="3.19149" height="3.63636" transform="matrix(-1 0 0 1 21.7021 14.5455)" fill="#EE921A"/>
<rect width="3.19149" height="3.63636" transform="matrix(-1 0 0 1 21.7021 14.5455)" fill="#EE921A"/>
<rect width="3.19149" height="3.63636" transform="matrix(-1 0 0 1 21.7021 14.5455)" fill="#A2D8FF"/>
<rect width="3.19149" height="3.63636" transform="matrix(-1 0 0 1 21.7021 14.5455)" fill="#A2D8FF"/>
<rect width="3.19149" height="3.63636" transform="matrix(-1 0 0 1 21.7021 14.5455)" fill="#A2D8FF"/>
<rect width="3.19149" height="3.63636" transform="matrix(-1 0 0 1 21.7021 14.5455)" fill="#A2D8FF"/>
<rect width="3.19149" height="3.63636" transform="matrix(-1 0 0 1 21.7021 14.5455)" fill="#A2F1FF"/>
<rect width="3.19149" height="3.63636" transform="matrix(-1 0 0 1 21.7021 14.5455)" fill="#A2F1FF"/>
<rect width="3.19149" height="3.63636" transform="matrix(-1 0 0 1 21.7021 14.5455)" fill="#A2F1FF"/>
<rect width="3.19149" height="3.63636" transform="matrix(-1 0 0 1 21.7021 14.5455)" fill="white"/>
<rect width="3.19149" height="3.63636" transform="matrix(-1 0 0 1 26.8085 15.2727)" fill="#EE921A"/>
<rect width="3.19149" height="3.63636" transform="matrix(-1 0 0 1 26.8085 15.2727)" fill="#EE921A"/>
<rect width="3.19149" height="3.63636" transform="matrix(-1 0 0 1 26.8085 15.2727)" fill="#EE921A"/>
<rect width="3.19149" height="3.63636" transform="matrix(-1 0 0 1 26.8085 15.2727)" fill="#A2D8FF"/>
<rect width="3.19149" height="3.63636" transform="matrix(-1 0 0 1 26.8085 15.2727)" fill="#A2D8FF"/>
<rect width="3.19149" height="3.63636" transform="matrix(-1 0 0 1 26.8085 15.2727)" fill="#A2D8FF"/>
<rect width="3.19149" height="3.63636" transform="matrix(-1 0 0 1 26.8085 15.2727)" fill="#A2D8FF"/>
<rect width="3.19149" height="3.63636" transform="matrix(-1 0 0 1 26.8085 15.2727)" fill="#A2F1FF"/>
<rect width="3.19149" height="3.63636" transform="matrix(-1 0 0 1 26.8085 15.2727)" fill="#A2F1FF"/>
<rect width="3.19149" height="3.63636" transform="matrix(-1 0 0 1 26.8085 15.2727)" fill="#A2F1FF"/>
<rect width="3.19149" height="3.63636" transform="matrix(-1 0 0 1 26.8085 15.2727)" fill="#A2F1FF"/>
<rect width="2.55319" height="2.90909" transform="matrix(-1 0 0 1 24.2553 16.7273)" fill="#EE921A"/>
<rect width="2.55319" height="2.90909" transform="matrix(-1 0 0 1 24.2553 16.7273)" fill="#EE921A"/>
<rect width="2.55319" height="2.90909" transform="matrix(-1 0 0 1 24.2553 16.7273)" fill="#EE921A"/>
<rect width="2.55319" height="2.90909" transform="matrix(-1 0 0 1 24.2553 16.7273)" fill="#A2D8FF"/>
<rect width="2.55319" height="2.90909" transform="matrix(-1 0 0 1 24.2553 16.7273)" fill="#A2D8FF"/>
<rect width="2.55319" height="2.90909" transform="matrix(-1 0 0 1 24.2553 16.7273)" fill="#A2D8FF"/>
<rect width="2.55319" height="2.90909" transform="matrix(-1 0 0 1 24.2553 16.7273)" fill="#A2D8FF"/>
<rect width="2.55319" height="2.90909" transform="matrix(-1 0 0 1 24.2553 16.7273)" fill="#A2F1FF"/>
<rect width="2.55319" height="2.90909" transform="matrix(-1 0 0 1 24.2553 16.7273)" fill="#A2F1FF"/>
<rect width="2.55319" height="2.90909" transform="matrix(-1 0 0 1 24.2553 16.7273)" fill="#A2F1FF"/>
<rect width="2.55319" height="2.90909" transform="matrix(-1 0 0 1 24.2553 16.7273)" fill="#A2F1FF"/>
<rect width="3.19149" height="3.63636" transform="matrix(-1 0 0 1 21.7021 18.1818)" fill="#EE921A"/>
<rect width="3.19149" height="3.63636" transform="matrix(-1 0 0 1 21.7021 18.1818)" fill="#EE921A"/>
<rect width="3.19149" height="3.63636" transform="matrix(-1 0 0 1 21.7021 18.1818)" fill="#EE921A"/>
<rect width="3.19149" height="3.63636" transform="matrix(-1 0 0 1 21.7021 18.1818)" fill="#A2D8FF"/>
<rect width="3.19149" height="3.63636" transform="matrix(-1 0 0 1 21.7021 18.1818)" fill="#A2D8FF"/>
<rect width="3.19149" height="3.63636" transform="matrix(-1 0 0 1 21.7021 18.1818)" fill="#A2D8FF"/>
<rect width="3.19149" height="3.63636" transform="matrix(-1 0 0 1 21.7021 18.1818)" fill="#A2D8FF"/>
<rect width="3.19149" height="3.63636" transform="matrix(-1 0 0 1 21.7021 18.1818)" fill="#A2F1FF"/>
<rect width="3.19149" height="3.63636" transform="matrix(-1 0 0 1 21.7021 18.1818)" fill="#A2F1FF"/>
<rect width="3.19149" height="3.63636" transform="matrix(-1 0 0 1 21.7021 18.1818)" fill="#A2F1FF"/>
<rect width="3.19149" height="3.63636" transform="matrix(-1 0 0 1 21.7021 18.1818)" fill="#A2F1FF"/>
<rect width="3.19149" height="3.63636" transform="matrix(-1 0 0 1 24.2553 18.9091)" fill="#EE921A"/>
<rect width="3.19149" height="3.63636" transform="matrix(-1 0 0 1 24.2553 18.9091)" fill="#EE921A"/>
<rect width="3.19149" height="3.63636" transform="matrix(-1 0 0 1 24.2553 18.9091)" fill="#EE921A"/>
<rect width="3.19149" height="3.63636" transform="matrix(-1 0 0 1 24.2553 18.9091)" fill="#A2D8FF"/>
<rect width="3.19149" height="3.63636" transform="matrix(-1 0 0 1 24.2553 18.9091)" fill="#A2D8FF"/>
<rect width="3.19149" height="3.63636" transform="matrix(-1 0 0 1 24.2553 18.9091)" fill="#A2D8FF"/>
<rect width="3.19149" height="3.63636" transform="matrix(-1 0 0 1 24.2553 18.9091)" fill="#A2D8FF"/>
<rect width="3.19149" height="3.63636" transform="matrix(-1 0 0 1 24.2553 18.9091)" fill="#A2F1FF"/>
<rect width="3.19149" height="3.63636" transform="matrix(-1 0 0 1 24.2553 18.9091)" fill="#A2F1FF"/>
<rect width="3.19149" height="3.63636" transform="matrix(-1 0 0 1 24.2553 18.9091)" fill="#A2F1FF"/>
<rect width="3.19149" height="3.63636" transform="matrix(-1 0 0 1 24.2553 18.9091)" fill="#A2F1FF"/>
<rect width="3.19149" height="3.63636" transform="matrix(-1 0 0 1 23.617 21.8182)" fill="#EE921A"/>
<rect width="3.19149" height="3.63636" transform="matrix(-1 0 0 1 23.617 21.8182)" fill="#EE921A"/>
<rect width="3.19149" height="3.63636" transform="matrix(-1 0 0 1 23.617 21.8182)" fill="#EE921A"/>
<rect width="3.19149" height="3.63636" transform="matrix(-1 0 0 1 23.617 21.8182)" fill="#A2D8FF"/>
<rect width="3.19149" height="3.63636" transform="matrix(-1 0 0 1 23.617 21.8182)" fill="#A2D8FF"/>
<rect width="3.19149" height="3.63636" transform="matrix(-1 0 0 1 23.617 21.8182)" fill="#A2D8FF"/>
<rect width="3.19149" height="3.63636" transform="matrix(-1 0 0 1 23.617 21.8182)" fill="#A2D8FF"/>
<rect width="3.19149" height="3.63636" transform="matrix(-1 0 0 1 23.617 21.8182)" fill="#A2F1FF"/>
<rect width="3.19149" height="3.63636" transform="matrix(-1 0 0 1 23.617 21.8182)" fill="#A2F1FF"/>
<rect width="3.19149" height="3.63636" transform="matrix(-1 0 0 1 23.617 21.8182)" fill="#A2F1FF"/>
<rect width="3.19149" height="3.63636" transform="matrix(-1 0 0 1 23.617 21.8182)" fill="#A2F1FF"/>
<rect width="3.19149" height="3.63636" transform="matrix(-1 0 0 1 20.4255 21.8182)" fill="#EE921A"/>
<rect width="3.19149" height="3.63636" transform="matrix(-1 0 0 1 20.4255 21.8182)" fill="#EE921A"/>
<rect width="3.19149" height="3.63636" transform="matrix(-1 0 0 1 20.4255 21.8182)" fill="#EE921A"/>
<rect width="3.19149" height="3.63636" transform="matrix(-1 0 0 1 20.4255 21.8182)" fill="#A2D8FF"/>
<rect width="3.19149" height="3.63636" transform="matrix(-1 0 0 1 20.4255 21.8182)" fill="#A2D8FF"/>
<rect width="3.19149" height="3.63636" transform="matrix(-1 0 0 1 20.4255 21.8182)" fill="#A2D8FF"/>
<rect width="3.19149" height="3.63636" transform="matrix(-1 0 0 1 20.4255 21.8182)" fill="#A2D8FF"/>
<rect width="3.19149" height="3.63636" transform="matrix(-1 0 0 1 20.4255 21.8182)" fill="#A2F1FF"/>
<rect width="3.19149" height="3.63636" transform="matrix(-1 0 0 1 20.4255 21.8182)" fill="#A2F1FF"/>
<rect width="3.19149" height="3.63636" transform="matrix(-1 0 0 1 20.4255 21.8182)" fill="#A2F1FF"/>
<rect width="3.19149" height="3.63636" transform="matrix(-1 0 0 1 20.4255 21.8182)" fill="#A2F1FF"/>
<rect width="3.19149" height="3.63636" transform="matrix(-1 0 0 1 21.0638 24.7273)" fill="#EE921A"/>
<rect width="3.19149" height="3.63636" transform="matrix(-1 0 0 1 21.0638 24.7273)" fill="#EE921A"/>
<rect width="3.19149" height="3.63636" transform="matrix(-1 0 0 1 21.0638 24.7273)" fill="#EE921A"/>
<rect width="3.19149" height="3.63636" transform="matrix(-1 0 0 1 21.0638 24.7273)" fill="#A2D8FF"/>
<rect width="3.19149" height="3.63636" transform="matrix(-1 0 0 1 21.0638 24.7273)" fill="#A2D8FF"/>
<rect width="3.19149" height="3.63636" transform="matrix(-1 0 0 1 21.0638 24.7273)" fill="#A2D8FF"/>
<rect width="3.19149" height="3.63636" transform="matrix(-1 0 0 1 21.0638 24.7273)" fill="#A2D8FF"/>
<rect width="3.19149" height="3.63636" transform="matrix(-1 0 0 1 21.0638 24.7273)" fill="#A2F1FF"/>
<rect width="3.19149" height="3.63636" transform="matrix(-1 0 0 1 21.0638 24.7273)" fill="#A2F1FF"/>
<rect width="3.19149" height="3.63636" transform="matrix(-1 0 0 1 21.0638 24.7273)" fill="#A2F1FF"/>
<rect width="3.19149" height="3.63636" transform="matrix(-1 0 0 1 21.0638 24.7273)" fill="#A2F1FF"/>
<rect width="3.19149" height="3.63636" transform="matrix(-1 0 0 1 19.1489 23.2727)" fill="#EE921A"/>
<rect width="3.19149" height="3.63636" transform="matrix(-1 0 0 1 19.1489 23.2727)" fill="#EE921A"/>
<rect width="3.19149" height="3.63636" transform="matrix(-1 0 0 1 19.1489 23.2727)" fill="#EE921A"/>
<rect width="3.19149" height="3.63636" transform="matrix(-1 0 0 1 19.1489 23.2727)" fill="#A2D8FF"/>
<rect width="3.19149" height="3.63636" transform="matrix(-1 0 0 1 19.1489 23.2727)" fill="#A2D8FF"/>
<rect width="3.19149" height="3.63636" transform="matrix(-1 0 0 1 19.1489 23.2727)" fill="#A2D8FF"/>
<rect width="3.19149" height="3.63636" transform="matrix(-1 0 0 1 19.1489 23.2727)" fill="#A2D8FF"/>
<rect width="3.19149" height="3.63636" transform="matrix(-1 0 0 1 19.1489 23.2727)" fill="#A2F1FF"/>
<rect width="3.19149" height="3.63636" transform="matrix(-1 0 0 1 19.1489 23.2727)" fill="#A2F1FF"/>
<rect width="3.19149" height="3.63636" transform="matrix(-1 0 0 1 19.1489 23.2727)" fill="#A2F1FF"/>
<rect width="3.19149" height="3.63636" transform="matrix(-1 0 0 1 19.1489 23.2727)" fill="#A2F1FF"/>
<rect width="3.19149" height="3.63636" transform="matrix(-1 0 0 1 19.7872 26.9091)" fill="#EE921A"/>
<rect width="3.19149" height="3.63636" transform="matrix(-1 0 0 1 19.7872 26.9091)" fill="#EE921A"/>
<rect width="3.19149" height="3.63636" transform="matrix(-1 0 0 1 19.7872 26.9091)" fill="#EE921A"/>
<rect width="3.19149" height="3.63636" transform="matrix(-1 0 0 1 19.7872 26.9091)" fill="#A2D8FF"/>
<rect width="3.19149" height="3.63636" transform="matrix(-1 0 0 1 19.7872 26.9091)" fill="#A2D8FF"/>
<rect width="3.19149" height="3.63636" transform="matrix(-1 0 0 1 19.7872 26.9091)" fill="#A2D8FF"/>
<rect width="3.19149" height="3.63636" transform="matrix(-1 0 0 1 19.7872 26.9091)" fill="#A2D8FF"/>
<rect width="3.19149" height="3.63636" transform="matrix(-1 0 0 1 19.7872 26.9091)" fill="#A2F1FF"/>
<rect width="3.19149" height="3.63636" transform="matrix(-1 0 0 1 19.7872 26.9091)" fill="#A2F1FF"/>
<rect width="3.19149" height="3.63636" transform="matrix(-1 0 0 1 19.7872 26.9091)" fill="#A2F1FF"/>
<rect width="3.19149" height="3.63636" transform="matrix(-1 0 0 1 19.7872 26.9091)" fill="#A2F1FF"/>
<rect width="3.19149" height="3.63636" transform="matrix(-1 0 0 1 14.0425 19.6364)" fill="#EE921A"/>
<rect width="3.19149" height="3.63636" transform="matrix(-1 0 0 1 14.0425 19.6364)" fill="#EE921A"/>
<rect width="3.19149" height="3.63636" transform="matrix(-1 0 0 1 14.0425 19.6364)" fill="#EE921A"/>
<rect width="3.19149" height="3.63636" transform="matrix(-1 0 0 1 14.0425 19.6364)" fill="#A2D8FF"/>
<rect width="3.19149" height="3.63636" transform="matrix(-1 0 0 1 14.0425 19.6364)" fill="#A2D8FF"/>
<rect width="3.19149" height="3.63636" transform="matrix(-1 0 0 1 14.0425 19.6364)" fill="#A2D8FF"/>
<rect width="3.19149" height="3.63636" transform="matrix(-1 0 0 1 14.0425 19.6364)" fill="#A2D8FF"/>
<rect width="3.19149" height="3.63636" transform="matrix(-1 0 0 1 14.0425 19.6364)" fill="#A2D8FF"/>
<rect width="3.19149" height="3.63636" transform="matrix(-1 0 0 1 26.8085 10.1818)" fill="#EE921A"/>
<rect width="3.19149" height="3.63636" transform="matrix(-1 0 0 1 26.8085 10.1818)" fill="#EE921A"/>
<rect width="3.19149" height="3.63636" transform="matrix(-1 0 0 1 26.8085 10.1818)" fill="#EE921A"/>
<rect width="3.19149" height="3.63636" transform="matrix(-1 0 0 1 26.8085 10.1818)" fill="#7D84FF"/>
<rect width="3.19149" height="3.63636" transform="matrix(-1 0 0 1 30 13.8182)" fill="#EE921A"/>
<rect width="3.19149" height="3.63636" transform="matrix(-1 0 0 1 30 13.8182)" fill="#EE921A"/>
<rect width="3.19149" height="3.63636" transform="matrix(-1 0 0 1 30 13.8182)" fill="#EE921A"/>
<rect width="3.19149" height="3.63636" transform="matrix(-1 0 0 1 30 13.8182)" fill="#7D84FF"/>
<rect width="3.19149" height="3.63636" transform="matrix(-1 0 0 1 30 17.4545)" fill="#EE921A"/>
<rect width="3.19149" height="3.63636" transform="matrix(-1 0 0 1 30 17.4545)" fill="#EE921A"/>
<rect width="3.19149" height="3.63636" transform="matrix(-1 0 0 1 30 17.4545)" fill="#EE921A"/>
<rect width="3.19149" height="3.63636" transform="matrix(-1 0 0 1 30 17.4545)" fill="#7D84FF"/>
<rect width="3.19149" height="3.63636" transform="matrix(-1 0 0 1 30 20.3636)" fill="#EE921A"/>
<rect width="3.19149" height="3.63636" transform="matrix(-1 0 0 1 30 20.3636)" fill="#EE921A"/>
<rect width="3.19149" height="3.63636" transform="matrix(-1 0 0 1 30 20.3636)" fill="#EE921A"/>
<rect width="3.19149" height="3.63636" transform="matrix(-1 0 0 1 30 20.3636)" fill="#7D84FF"/>
<rect width="3.19149" height="3.63636" transform="matrix(-1 0 0 1 26.8085 21.8182)" fill="#EE921A"/>
<rect width="3.19149" height="3.63636" transform="matrix(-1 0 0 1 26.8085 21.8182)" fill="#EE921A"/>
<rect width="3.19149" height="3.63636" transform="matrix(-1 0 0 1 26.8085 21.8182)" fill="#EE921A"/>
<rect width="3.19149" height="3.63636" transform="matrix(-1 0 0 1 26.8085 21.8182)" fill="#7D84FF"/>
<rect width="3.19149" height="3.63636" transform="matrix(-1 0 0 1 26.8085 24)" fill="#EE921A"/>
<rect width="3.19149" height="3.63636" transform="matrix(-1 0 0 1 26.8085 24)" fill="#EE921A"/>
<rect width="3.19149" height="3.63636" transform="matrix(-1 0 0 1 26.8085 24)" fill="#EE921A"/>
<rect width="3.19149" height="3.63636" transform="matrix(-1 0 0 1 26.8085 24)" fill="#7D84FF"/>
<rect width="3.19149" height="3.63636" transform="matrix(-1 0 0 1 24.2553 26.9091)" fill="#EE921A"/>
<rect width="3.19149" height="3.63636" transform="matrix(-1 0 0 1 24.2553 26.9091)" fill="#EE921A"/>
<rect width="3.19149" height="3.63636" transform="matrix(-1 0 0 1 24.2553 26.9091)" fill="#EE921A"/>
<rect width="3.19149" height="3.63636" transform="matrix(-1 0 0 1 24.2553 26.9091)" fill="#7D84FF"/>
<rect width="3.19149" height="3.63636" transform="matrix(-1 0 0 1 24.2553 24.7273)" fill="#EE921A"/>
<rect width="3.19149" height="3.63636" transform="matrix(-1 0 0 1 24.2553 24.7273)" fill="#EE921A"/>
<rect width="3.19149" height="3.63636" transform="matrix(-1 0 0 1 24.2553 24.7273)" fill="#EE921A"/>
<rect width="3.19149" height="3.63636" transform="matrix(-1 0 0 1 24.2553 24.7273)" fill="#7D84FF"/>
<rect width="3.19149" height="3.63637" transform="matrix(-1 0 0 1 21.0638 30.5455)" fill="#EE921A"/>
<rect width="3.19149" height="3.63637" transform="matrix(-1 0 0 1 21.0638 30.5455)" fill="#EE921A"/>
<rect width="3.19149" height="3.63637" transform="matrix(-1 0 0 1 21.0638 30.5455)" fill="#EE921A"/>
<rect width="3.19149" height="3.63637" transform="matrix(-1 0 0 1 21.0638 30.5455)" fill="#7D84FF"/>
<rect width="3.19149" height="3.63637" transform="matrix(-1 0 0 1 17.8723 30.5455)" fill="#EE921A"/>
<rect width="3.19149" height="3.63637" transform="matrix(-1 0 0 1 17.8723 30.5455)" fill="#EE921A"/>
<rect width="3.19149" height="3.63637" transform="matrix(-1 0 0 1 17.8723 30.5455)" fill="#EE921A"/>
<rect width="3.19149" height="3.63637" transform="matrix(-1 0 0 1 17.8723 30.5455)" fill="#7D84FF"/>
<rect width="3.19149" height="3.63637" transform="matrix(-1 0 0 1 15.9575 30.5455)" fill="#EE921A"/>
<rect width="3.19149" height="3.63637" transform="matrix(-1 0 0 1 15.9575 30.5455)" fill="#EE921A"/>
<rect width="3.19149" height="3.63637" transform="matrix(-1 0 0 1 15.9575 30.5455)" fill="#EE921A"/>
<rect width="3.19149" height="3.63637" transform="matrix(-1 0 0 1 15.9575 30.5455)" fill="#7D84FF"/>
<rect width="3.19149" height="3.63636" transform="matrix(-1 0 0 1 12.7659 26.9091)" fill="#EE921A"/>
<rect width="3.19149" height="3.63636" transform="matrix(-1 0 0 1 12.7659 26.9091)" fill="#EE921A"/>
<rect width="3.19149" height="3.63636" transform="matrix(-1 0 0 1 12.7659 26.9091)" fill="#EE921A"/>
<rect width="3.19149" height="3.63636" transform="matrix(-1 0 0 1 12.7659 26.9091)" fill="#7D84FF"/>
<rect width="3.19149" height="3.63636" transform="matrix(-1 0 0 1 9.57446 24)" fill="#EE921A"/>
<rect width="3.19149" height="3.63636" transform="matrix(-1 0 0 1 9.57446 24)" fill="#EE921A"/>
<rect width="3.19149" height="3.63636" transform="matrix(-1 0 0 1 9.57446 24)" fill="#EE921A"/>
<rect width="3.19149" height="3.63636" transform="matrix(-1 0 0 1 9.57446 24)" fill="#7D84FF"/>
<rect width="3.19149" height="3.63636" transform="matrix(-1 0 0 1 6.383 20.3636)" fill="#EE921A"/>
<rect width="3.19149" height="3.63636" transform="matrix(-1 0 0 1 6.383 20.3636)" fill="#EE921A"/>
<rect width="3.19149" height="3.63636" transform="matrix(-1 0 0 1 6.383 20.3636)" fill="#EE921A"/>
<rect width="3.19149" height="3.63636" transform="matrix(-1 0 0 1 6.383 20.3636)" fill="#7D84FF"/>
<rect width="3.19149" height="3.63636" transform="matrix(-1 0 0 1 6.383 16.7273)" fill="#EE921A"/>
<rect width="3.19149" height="3.63636" transform="matrix(-1 0 0 1 6.383 16.7273)" fill="#EE921A"/>
<rect width="3.19149" height="3.63636" transform="matrix(-1 0 0 1 6.383 16.7273)" fill="#EE921A"/>
<rect width="3.19149" height="3.63636" transform="matrix(-1 0 0 1 6.383 16.7273)" fill="#7D84FF"/>
<rect width="3.19149" height="3.63636" transform="matrix(-1 0 0 1 6.383 13.8182)" fill="#EE921A"/>
<rect width="3.19149" height="3.63636" transform="matrix(-1 0 0 1 6.383 13.8182)" fill="#EE921A"/>
<rect width="3.19149" height="3.63636" transform="matrix(-1 0 0 1 6.383 13.8182)" fill="#EE921A"/>
<rect width="3.19149" height="3.63636" transform="matrix(-1 0 0 1 6.383 13.8182)" fill="#7D84FF"/>
<rect width="3.19149" height="3.63636" transform="matrix(-1 0 0 1 8.93616 10.9091)" fill="#EE921A"/>
<rect width="3.19149" height="3.63636" transform="matrix(-1 0 0 1 8.93616 10.9091)" fill="#EE921A"/>
<rect width="3.19149" height="3.63636" transform="matrix(-1 0 0 1 8.93616 10.9091)" fill="#EE921A"/>
<rect width="3.19149" height="3.63636" transform="matrix(-1 0 0 1 8.93616 10.9091)" fill="#7D84FF"/>
<rect width="3.19149" height="3.63636" transform="matrix(-1 0 0 1 12.1277 7.27272)" fill="#EE921A"/>
<rect width="3.19149" height="3.63636" transform="matrix(-1 0 0 1 12.1277 7.27272)" fill="#EE921A"/>
<rect width="3.19149" height="3.63636" transform="matrix(-1 0 0 1 12.1277 7.27272)" fill="#EE921A"/>
<rect width="3.19149" height="3.63636" transform="matrix(-1 0 0 1 12.1277 7.27272)" fill="#7D84FF"/>
<rect width="3.19149" height="3.63637" transform="matrix(-1 0 0 1 15.9575 30.5455)" fill="#EE921A"/>
<rect width="3.19149" height="3.63637" transform="matrix(-1 0 0 1 15.9575 30.5455)" fill="#EE921A"/>
<rect width="3.19149" height="3.63637" transform="matrix(-1 0 0 1 15.9575 30.5455)" fill="#EE921A"/>
<rect width="3.19149" height="3.63637" transform="matrix(-1 0 0 1 15.9575 30.5455)" fill="#7D84FF"/>
<rect width="3.19149" height="3.63636" transform="matrix(-1 0 0 1 10.8511 25.4545)" fill="#EE921A"/>
<rect width="3.19149" height="3.63636" transform="matrix(-1 0 0 1 10.8511 25.4545)" fill="#EE921A"/>
<rect width="3.19149" height="3.63636" transform="matrix(-1 0 0 1 10.8511 25.4545)" fill="#EE921A"/>
<rect width="3.19149" height="3.63636" transform="matrix(-1 0 0 1 10.8511 25.4545)" fill="#7D84FF"/>
<rect width="3.19149" height="3.63636" transform="matrix(-1 0 0 1 14.6808 28.3636)" fill="#EE921A"/>
<rect width="3.19149" height="3.63636" transform="matrix(-1 0 0 1 14.6808 28.3636)" fill="#EE921A"/>
<rect width="3.19149" height="3.63636" transform="matrix(-1 0 0 1 14.6808 28.3636)" fill="#EE921A"/>
<rect width="3.19149" height="3.63636" transform="matrix(-1 0 0 1 14.6808 28.3636)" fill="#7D84FF"/>
<rect width="3.19149" height="3.63636" transform="matrix(-1 0 0 1 22.3405 28.3636)" fill="#EE921A"/>
<rect width="3.19149" height="3.63636" transform="matrix(-1 0 0 1 22.3405 28.3636)" fill="#EE921A"/>
<rect width="3.19149" height="3.63636" transform="matrix(-1 0 0 1 22.3405 28.3636)" fill="#EE921A"/>
<rect width="3.19149" height="3.63636" transform="matrix(-1 0 0 1 22.3405 28.3636)" fill="#7D84FF"/>
<rect width="3.19149" height="3.63636" transform="matrix(-1 0 0 1 28.0851 11.6364)" fill="#EE921A"/>
<rect width="3.19149" height="3.63636" transform="matrix(-1 0 0 1 28.0851 11.6364)" fill="#EE921A"/>
<rect width="3.19149" height="3.63636" transform="matrix(-1 0 0 1 28.0851 11.6364)" fill="#EE921A"/>
<rect width="3.19149" height="3.63636" transform="matrix(-1 0 0 1 28.0851 11.6364)" fill="#7D84FF"/>
<rect width="3.19149" height="3.63636" transform="matrix(-1 0 0 1 10.8511 9.45454)" fill="#EE921A"/>
<rect width="3.19149" height="3.63636" transform="matrix(-1 0 0 1 10.8511 9.45454)" fill="#EE921A"/>
<rect width="3.19149" height="3.63636" transform="matrix(-1 0 0 1 10.8511 9.45454)" fill="#EE921A"/>
<rect width="3.19149" height="3.63636" transform="matrix(-1 0 0 1 10.8511 9.45454)" fill="#7D84FF"/>
<rect width="3.19149" height="3.63636" transform="matrix(-1 0 0 1 14.0425 5.09091)" fill="#EE921A"/>
<rect width="3.19149" height="3.63636" transform="matrix(-1 0 0 1 14.0425 5.09091)" fill="#EE921A"/>
<rect width="3.19149" height="3.63636" transform="matrix(-1 0 0 1 14.0425 5.09091)" fill="#EE921A"/>
<rect width="3.19149" height="3.63636" transform="matrix(-1 0 0 1 14.0425 5.09091)" fill="#7D84FF"/>
<rect width="3.19149" height="3.63636" transform="matrix(-1 0 0 1 7.65955 13.0909)" fill="#EE921A"/>
<rect width="3.19149" height="3.63636" transform="matrix(-1 0 0 1 7.65955 13.0909)" fill="#EE921A"/>
<rect width="3.19149" height="3.63636" transform="matrix(-1 0 0 1 7.65955 13.0909)" fill="#EE921A"/>
<rect width="3.19149" height="3.63636" transform="matrix(-1 0 0 1 7.65955 13.0909)" fill="#7D84FF"/>
<rect width="3.19149" height="3.63636" transform="matrix(-1 0 0 1 8.29785 21.0909)" fill="#EE921A"/>
<rect width="3.19149" height="3.63636" transform="matrix(-1 0 0 1 8.29785 21.0909)" fill="#EE921A"/>
<rect width="3.19149" height="3.63636" transform="matrix(-1 0 0 1 8.29785 21.0909)" fill="#EE921A"/>
<rect width="3.19149" height="3.63636" transform="matrix(-1 0 0 1 8.29785 21.0909)" fill="#7D84FF"/>
<rect width="3.19149" height="3.63636" transform="matrix(-1 0 0 1 27.4468 18.9091)" fill="#EE921A"/>
<rect width="3.19149" height="3.63636" transform="matrix(-1 0 0 1 27.4468 18.9091)" fill="#EE921A"/>
<rect width="3.19149" height="3.63636" transform="matrix(-1 0 0 1 27.4468 18.9091)" fill="#EE921A"/>
<rect width="3.19149" height="3.63636" transform="matrix(-1 0 0 1 27.4468 18.9091)" fill="#7D84FF"/>
</svg>
