<svg width="104" height="159" viewBox="0 0 104 159" fill="none" xmlns="http://www.w3.org/2000/svg">
<rect x="24.6002" y="89.9767" width="7.7105" height="9.06293" fill="#7D1204"/>
<rect x="16.8896" y="89.9767" width="7.7105" height="9.06293" fill="#7D1204"/>
<rect x="24.6002" y="99.0397" width="7.7105" height="9.06293" fill="#7D1204"/>
<rect x="24.6002" y="108.103" width="7.7105" height="9.06293" fill="#7D1204"/>
<rect x="24.6002" y="115.353" width="7.7105" height="9.06293" fill="#7D1204"/>
<rect x="24.6002" y="124.416" width="7.7105" height="9.06293" fill="#7D1204"/>
<rect x="24.6002" y="131.666" width="7.7105" height="9.06293" fill="#7D1204"/>
<rect x="22.6726" y="137.104" width="7.7105" height="9.06293" fill="#7D1204"/>
<rect x="14.962" y="142.542" width="7.7105" height="9.06293" fill="#7D1204"/>
<rect x="11.1068" y="138.917" width="7.7105" height="9.06293" fill="#7D1204"/>
<rect x="11.1068" y="89.9767" width="7.7105" height="48.9398" fill="#7D1204"/>
<rect x="14.962" y="95.4145" width="11.5658" height="48.9398" fill="#9F1300"/>
<rect width="7.7105" height="9.06293" transform="matrix(-1 0 0 1 83.4386 89.9767)" fill="#7D1204"/>
<rect width="7.7105" height="9.06293" transform="matrix(-1 0 0 1 91.1492 89.9767)" fill="#7D1204"/>
<rect width="7.7105" height="9.06293" transform="matrix(-1 0 0 1 83.4386 99.0397)" fill="#7D1204"/>
<rect width="7.7105" height="9.06293" transform="matrix(-1 0 0 1 83.4386 108.103)" fill="#7D1204"/>
<rect width="7.7105" height="9.06293" transform="matrix(-1 0 0 1 83.4386 115.353)" fill="#7D1204"/>
<rect width="7.7105" height="9.06293" transform="matrix(-1 0 0 1 83.4386 124.416)" fill="#7D1204"/>
<rect width="7.7105" height="9.06293" transform="matrix(-1 0 0 1 83.4386 131.666)" fill="#7D1204"/>
<rect width="7.7105" height="9.06293" transform="matrix(-1 0 0 1 85.3662 137.104)" fill="#7D1204"/>
<rect width="7.7105" height="9.06293" transform="matrix(-1 0 0 1 93.0768 142.542)" fill="#7D1204"/>
<rect width="7.7105" height="9.06293" transform="matrix(-1 0 0 1 96.932 138.917)" fill="#7D1204"/>
<rect width="7.7105" height="48.9398" transform="matrix(-1 0 0 1 96.932 89.9767)" fill="#7D1204"/>
<rect width="11.5658" height="48.9398" transform="matrix(-1 0 0 1 93.0768 95.4145)" fill="#9F1300"/>
<rect x="60.1787" y="93.6744" width="13.1935" height="9.073" fill="#1B4303"/>
<rect x="52.6395" y="97.3036" width="9.42395" height="9.073" fill="#1B4303"/>
<rect x="43.2156" y="97.3036" width="9.42395" height="9.073" fill="#1B4303"/>
<rect x="33.7916" y="97.3036" width="9.42395" height="9.073" fill="#1B4303"/>
<rect x="31.9069" y="95.489" width="9.42395" height="9.073" fill="#1B4303"/>
<rect x="73.3722" y="124.523" width="9.42395" height="9.073" fill="#1B4303"/>
<rect x="26.2524" y="95.489" width="9.42395" height="9.073" fill="#1B4303"/>
<rect x="26.2524" y="104.562" width="9.42395" height="9.073" fill="#1B4303"/>
<rect x="26.2524" y="113.635" width="9.42395" height="9.073" fill="#1B4303"/>
<rect x="33.7916" y="99.1182" width="41.4654" height="50.8088" fill="#36630E"/>
<rect x="26.2524" y="122.708" width="9.42395" height="9.073" fill="#1B4303"/>
<rect x="26.2524" y="131.781" width="9.42395" height="9.073" fill="#1B4303"/>
<rect x="26.2524" y="140.854" width="9.42395" height="9.07299" fill="#1B4303"/>
<rect x="26.2524" y="149.927" width="9.42395" height="9.073" fill="#1B4303"/>
<rect x="31.9069" y="144.483" width="9.42395" height="9.073" fill="#1B4303"/>
<rect x="41.3308" y="139.039" width="9.42395" height="10.8876" fill="#1B4303"/>
<rect x="50.7548" y="139.039" width="9.42395" height="10.8876" fill="#1B4303"/>
<rect x="58.2938" y="144.483" width="9.42395" height="9.073" fill="#1B4303"/>
<rect x="65.833" y="149.927" width="9.42395" height="9.073" fill="#1B4303"/>
<rect x="71.4874" y="149.927" width="9.42395" height="9.073" fill="#1B4303"/>
<rect x="73.3722" y="142.669" width="9.42395" height="9.073" fill="#1B4303"/>
<rect x="73.3722" y="133.596" width="9.42395" height="9.073" fill="#1B4303"/>
<rect x="73.3722" y="124.523" width="9.42395" height="9.073" fill="#1B4303"/>
<rect x="73.3722" y="115.45" width="9.42395" height="9.073" fill="#1B4303"/>
<rect x="73.3722" y="106.377" width="9.42395" height="9.073" fill="#1B4303"/>
<rect x="73.3722" y="97.3036" width="9.42395" height="9.073" fill="#1B4303"/>
<rect width="56.7273" height="62.1379" transform="matrix(-1 0 0 1 79.4182 23.7586)" fill="#F2D345"/>
<rect width="5.67273" height="5.48276" transform="matrix(-1 0 0 1 68.0728 73.1035)" fill="#FFEC8C"/>
<rect x="35.9272" y="73.1035" width="5.67273" height="5.48276" fill="#FFEC8C"/>
<rect width="5.67273" height="5.48276" transform="matrix(-1 0 0 1 68.0728 29.2414)" fill="#FFEC8C"/>
<rect x="35.9272" y="29.2414" width="5.67273" height="5.48276" fill="#FFEC8C"/>
<rect x="75.6364" y="65.7931" width="15.1273" height="18.2759" fill="#FFE871"/>
<rect x="64.2909" y="78.5862" width="15.1273" height="18.2759" fill="#FFE871"/>
<rect x="13.2363" y="67.6207" width="13.2364" height="9.13793" fill="#FFE871"/>
<rect x="15.1273" y="74.931" width="13.2364" height="9.13792" fill="#FFE871"/>
<rect x="15.1273" y="74.931" width="13.2364" height="9.13792" fill="#FFE871"/>
<rect x="30.2545" y="82.2414" width="13.2364" height="9.13793" fill="#FFE871"/>
<rect x="41.6" y="85.8965" width="30.2545" height="9.13793" fill="#FFE871"/>
<rect x="41.6" y="7.31033" width="13.2364" height="9.13793" fill="#FFE871"/>
<rect x="51.0546" y="7.31033" width="13.2364" height="9.13793" fill="#FFE871"/>
<rect x="64.2909" y="18.2758" width="13.2364" height="9.13793" fill="#FFE871"/>
<rect x="75.6364" y="25.5862" width="13.2364" height="9.13793" fill="#FFE871"/>
<rect x="20.8" y="18.2758" width="13.2364" height="9.13793" fill="#FFE871"/>
<rect x="15.1273" y="25.5862" width="13.2364" height="9.13793" fill="#FFE871"/>
<rect x="39.7091" width="15.1273" height="9.13793" fill="#B8871C"/>
<rect x="39.7091" width="15.1273" height="9.13793" fill="#B8871C"/>
<rect x="32.1455" y="5.48276" width="9.45454" height="9.13793" fill="#B8871C"/>
<rect x="32.1455" y="20.1035" width="9.45454" height="5.48276" fill="#B8871C"/>
<rect x="39.7091" y="16.4483" width="15.1273" height="5.48276" fill="#B8871C"/>
<rect x="26.4728" y="25.5862" width="9.45455" height="5.48276" fill="#B8871C"/>
<rect x="22.6909" y="31.069" width="9.45455" height="5.48276" fill="#B8871C"/>
<rect x="17.0182" y="34.7241" width="9.45454" height="5.48276" fill="#B8871C"/>
<rect x="17.0182" y="62.1379" width="9.45454" height="5.48276" fill="#B8871C"/>
<rect x="20.8" y="67.6207" width="9.45455" height="5.48276" fill="#B8871C"/>
<rect x="24.5818" y="73.1035" width="9.45455" height="5.48276" fill="#B8871C"/>
<rect x="28.3636" y="78.5862" width="9.45454" height="5.48276" fill="#B8871C"/>
<rect x="34.0364" y="82.2414" width="9.45454" height="5.48276" fill="#B8871C"/>
<path d="M37.8182 85.8965H56.7273V91.3793H37.8182V85.8965Z" fill="#B8871C"/>
<rect x="17.0182" y="40.2069" width="5.67273" height="5.48276" fill="#B8871C"/>
<rect x="17.0182" y="45.6897" width="5.67273" height="5.48276" fill="#B8871C"/>
<rect x="17.0182" y="51.1724" width="5.67273" height="5.48276" fill="#B8871C"/>
<rect x="17.0182" y="56.6552" width="5.67273" height="5.48276" fill="#B8871C"/>
<rect width="9.45454" height="5.48276" transform="matrix(-1 0 0 1 71.8545 20.1035)" fill="#B8871C"/>
<rect width="9.45454" height="5.48276" transform="matrix(-1 0 0 1 64.2909 16.4483)" fill="#B8871C"/>
<rect width="9.45454" height="5.48276" transform="matrix(-1 0 0 1 77.5272 25.5862)" fill="#B8871C"/>
<rect width="9.45454" height="5.48276" transform="matrix(-1 0 0 1 81.3091 31.069)" fill="#B8871C"/>
<rect width="9.45454" height="5.48276" transform="matrix(-1 0 0 1 86.9818 34.7241)" fill="#B8871C"/>
<rect width="9.45454" height="5.48276" transform="matrix(-1 0 0 1 86.9818 62.1379)" fill="#B8871C"/>
<rect width="9.45454" height="5.48276" transform="matrix(-1 0 0 1 83.2 67.6207)" fill="#B8871C"/>
<rect width="9.45454" height="5.48276" transform="matrix(-1 0 0 1 79.4182 73.1035)" fill="#B8871C"/>
<rect width="9.45454" height="5.48276" transform="matrix(-1 0 0 1 75.6364 78.5862)" fill="#B8871C"/>
<rect width="9.45455" height="5.48276" transform="matrix(-1 0 0 1 69.9636 82.2414)" fill="#B8871C"/>
<path d="M66.1818 85.8965H56.7272V91.3793H66.1818V85.8965Z" fill="#B8871C"/>
<rect width="5.67273" height="5.48276" transform="matrix(-1 0 0 1 86.9818 40.2069)" fill="#B8871C"/>
<rect width="5.67273" height="5.48276" transform="matrix(-1 0 0 1 86.9818 45.6897)" fill="#B8871C"/>
<rect width="5.67273" height="5.48276" transform="matrix(-1 0 0 1 86.9818 51.1724)" fill="#B8871C"/>
<rect width="5.67273" height="5.48276" transform="matrix(-1 0 0 1 86.9818 56.6552)" fill="#B8871C"/>
<rect x="22.6909" y="9.13794" width="9.45455" height="9.13793" fill="#B8871C"/>
<rect x="17.0182" y="14.6207" width="9.45454" height="9.13793" fill="#B8871C"/>
<rect x="9.45459" y="20.1035" width="9.45455" height="9.13793" fill="#B8871C"/>
<rect x="5.67273" y="27.4138" width="9.45455" height="9.13793" fill="#B8871C"/>
<rect x="5.67273" y="32.8965" width="9.45455" height="9.13793" fill="#B8871C"/>
<rect y="40.2069" width="9.45455" height="9.13793" fill="#B8871C"/>
<rect y="49.3448" width="9.45455" height="9.13793" fill="#B8871C"/>
<rect y="58.4828" width="9.45455" height="9.13793" fill="#B8871C"/>
<rect y="62.1379" width="9.45455" height="9.13793" fill="#B8871C"/>
<rect x="5.67273" y="71.2759" width="9.45455" height="9.13793" fill="#B8871C"/>
<rect x="11.3455" y="80.4138" width="9.45455" height="9.13793" fill="#B8871C"/>
<rect x="18.9091" y="84.069" width="9.45455" height="9.13793" fill="#B8871C"/>
<rect x="22.6909" y="87.7241" width="9.45455" height="9.13793" fill="#B8871C"/>
<rect x="30.2545" y="93.2069" width="9.45455" height="9.13793" fill="#B8871C"/>
<rect x="39.7091" y="96.8621" width="15.1273" height="9.13793" fill="#B8871C"/>
<rect width="9.45454" height="9.13793" transform="matrix(-1 0 0 1 64.2909 0)" fill="#B8871C"/>
<rect width="9.45454" height="9.13793" transform="matrix(-1 0 0 1 71.8545 5.48276)" fill="#B8871C"/>
<rect width="9.45454" height="9.13793" transform="matrix(-1 0 0 1 81.3091 9.13794)" fill="#B8871C"/>
<rect width="9.45454" height="9.13793" transform="matrix(-1 0 0 1 86.9818 14.6207)" fill="#B8871C"/>
<rect width="9.45454" height="9.13793" transform="matrix(-1 0 0 1 94.5454 20.1035)" fill="#B8871C"/>
<rect width="9.45454" height="9.13793" transform="matrix(-1 0 0 1 98.3273 27.4138)" fill="#B8871C"/>
<rect width="9.45454" height="9.13793" transform="matrix(-1 0 0 1 98.3273 32.8965)" fill="#B8871C"/>
<rect width="9.45454" height="9.13793" transform="matrix(-1 0 0 1 104 40.2069)" fill="#B8871C"/>
<rect width="9.45454" height="9.13793" transform="matrix(-1 0 0 1 104 49.3448)" fill="#B8871C"/>
<rect width="9.45454" height="9.13793" transform="matrix(-1 0 0 1 104 58.4828)" fill="#B8871C"/>
<rect width="9.45454" height="9.13793" transform="matrix(-1 0 0 1 104 62.1379)" fill="#B8871C"/>
<rect width="9.45454" height="9.13793" transform="matrix(-1 0 0 1 98.3273 71.2759)" fill="#B8871C"/>
<rect width="9.45455" height="9.13793" transform="matrix(-1 0 0 1 92.6545 80.4138)" fill="#B8871C"/>
<rect width="9.45455" height="9.13793" transform="matrix(-1 0 0 1 85.0909 84.069)" fill="#B8871C"/>
<rect width="9.45454" height="9.13793" transform="matrix(-1 0 0 1 81.3091 87.7241)" fill="#B8871C"/>
<rect width="9.45454" height="9.13793" transform="matrix(-1 0 0 1 73.7455 93.2069)" fill="#B8871C"/>
<rect width="9.45454" height="9.13793" transform="matrix(-1 0 0 1 64.2909 96.8621)" fill="#B8871C"/>
<rect x="41.6" y="5.48276" width="13.2364" height="9.13793" fill="#F2D345"/>
<rect x="41.6" y="5.48276" width="13.2364" height="9.13793" fill="#F2D345"/>
<rect x="35.9272" y="10.9655" width="5.67273" height="9.13793" fill="#F2D345"/>
<rect x="35.9272" y="23.7586" width="5.67273" height="5.48276" fill="#F2D345"/>
<rect x="41.6" y="21.931" width="13.2364" height="3.65517" fill="#F2D345"/>
<rect x="30.2545" y="29.2414" width="9.45455" height="3.65517" fill="#F2D345"/>
<rect x="26.4728" y="32.8965" width="9.45455" height="3.65517" fill="#F2D345"/>
<rect x="20.8" y="36.5517" width="9.45455" height="5.48276" fill="#F2D345"/>
<rect x="20.8" y="62.1379" width="9.45455" height="5.48276" fill="#F2D345"/>
<rect x="24.5818" y="69.4483" width="5.67273" height="3.65517" fill="#F2D345"/>
<rect x="28.3636" y="73.1035" width="9.45454" height="5.48276" fill="#F2D345"/>
<rect x="32.1455" y="78.5862" width="9.45454" height="3.65517" fill="#F2D345"/>
<rect x="37.8182" y="80.4138" width="5.67273" height="5.48276" fill="#F2D345"/>
<path d="M41.6 84.069H56.7272V87.7241H41.6V84.069Z" fill="#F2D345"/>
<rect x="20.8" y="42.0345" width="5.67273" height="5.48276" fill="#F2D345"/>
<rect x="20.8" y="47.5172" width="5.67273" height="5.48276" fill="#F2D345"/>
<rect x="20.8" y="53" width="5.67273" height="3.65517" fill="#F2D345"/>
<rect x="20.8" y="56.6552" width="5.67273" height="5.48276" fill="#F2D345"/>
<rect width="5.67273" height="5.48276" transform="matrix(-1 0 0 1 68.0728 23.7586)" fill="#F2D345"/>
<rect width="7.56364" height="3.65517" transform="matrix(-1 0 0 1 62.4 21.931)" fill="#F2D345"/>
<rect width="9.45454" height="3.65517" transform="matrix(-1 0 0 1 73.7455 29.2414)" fill="#F2D345"/>
<rect width="9.45454" height="3.65517" transform="matrix(-1 0 0 1 77.5272 32.8965)" fill="#F2D345"/>
<rect width="9.45454" height="5.48276" transform="matrix(-1 0 0 1 83.2 36.5517)" fill="#F2D345"/>
<rect width="9.45454" height="5.48276" transform="matrix(-1 0 0 1 83.2 62.1379)" fill="#F2D345"/>
<rect width="5.67273" height="5.48276" transform="matrix(-1 0 0 1 79.4182 67.6207)" fill="#F2D345"/>
<rect width="9.45454" height="5.48276" transform="matrix(-1 0 0 1 75.6364 73.1035)" fill="#F2D345"/>
<rect width="9.45454" height="3.65517" transform="matrix(-1 0 0 1 71.8545 78.5862)" fill="#F2D345"/>
<rect width="5.67273" height="5.48276" transform="matrix(-1 0 0 1 66.1818 80.4138)" fill="#F2D345"/>
<path d="M62.4 84.069H56.7273V87.7241H62.4V84.069Z" fill="#F2D345"/>
<rect width="5.67272" height="5.48276" transform="matrix(-1 0 0 1 83.2 42.0345)" fill="#F2D345"/>
<rect width="5.67272" height="5.48276" transform="matrix(-1 0 0 1 83.2 47.5172)" fill="#F2D345"/>
<rect width="5.67272" height="3.65517" transform="matrix(-1 0 0 1 83.2 53)" fill="#F2D345"/>
<rect width="5.67272" height="5.48276" transform="matrix(-1 0 0 1 83.2 56.6552)" fill="#F2D345"/>
<rect x="26.4728" y="14.6207" width="9.45455" height="7.31034" fill="#F2D345"/>
<rect x="20.8" y="20.1035" width="9.45455" height="7.31034" fill="#F2D345"/>
<rect x="17.0182" y="23.7586" width="5.67273" height="7.31034" fill="#F2D345"/>
<rect x="13.2363" y="29.2414" width="5.67273" height="9.13793" fill="#F2D345"/>
<rect x="13.2363" y="34.7241" width="5.67273" height="9.13793" fill="#F2D345"/>
<rect x="7.5636" y="42.0345" width="9.45455" height="9.13793" fill="#F2D345"/>
<rect x="7.5636" y="51.1724" width="9.45455" height="7.31034" fill="#F2D345"/>
<rect x="7.5636" y="58.4828" width="9.45455" height="9.13793" fill="#F2D345"/>
<rect x="7.5636" y="62.1379" width="9.45455" height="9.13793" fill="#F2D345"/>
<rect x="13.2363" y="71.2759" width="5.67273" height="9.13793" fill="#F2D345"/>
<rect x="18.9091" y="78.5862" width="5.67273" height="7.31035" fill="#F2D345"/>
<rect x="22.6909" y="82.2414" width="9.45455" height="7.31035" fill="#F2D345"/>
<rect x="26.4728" y="85.8965" width="9.45455" height="7.31034" fill="#F2D345"/>
<rect x="34.0364" y="89.5517" width="7.56363" height="9.13792" fill="#F2D345"/>
<rect x="41.6" y="93.2069" width="13.2364" height="9.13793" fill="#F2D345"/>
<rect width="7.56364" height="9.13793" transform="matrix(-1 0 0 1 62.4 5.48276)" fill="#F2D345"/>
<rect width="5.67273" height="9.13793" transform="matrix(-1 0 0 1 68.0728 10.9655)" fill="#F2D345"/>
<rect width="9.45454" height="7.31034" transform="matrix(-1 0 0 1 77.5272 14.6207)" fill="#F2D345"/>
<rect width="9.45454" height="7.31034" transform="matrix(-1 0 0 1 83.2 20.1035)" fill="#F2D345"/>
<rect width="5.67273" height="7.31034" transform="matrix(-1 0 0 1 86.9818 23.7586)" fill="#F2D345"/>
<rect width="5.67272" height="9.13793" transform="matrix(-1 0 0 1 90.7637 29.2414)" fill="#F2D345"/>
<rect width="5.67272" height="9.13793" transform="matrix(-1 0 0 1 90.7637 34.7241)" fill="#F2D345"/>
<rect width="9.45454" height="9.13793" transform="matrix(-1 0 0 1 96.4364 42.0345)" fill="#F2D345"/>
<rect width="9.45454" height="7.31034" transform="matrix(-1 0 0 1 96.4364 51.1724)" fill="#F2D345"/>
<rect width="9.45454" height="9.13793" transform="matrix(-1 0 0 1 96.4364 58.4828)" fill="#F2D345"/>
<rect width="9.45454" height="9.13793" transform="matrix(-1 0 0 1 96.4364 62.1379)" fill="#F2D345"/>
<rect width="5.67272" height="9.13793" transform="matrix(-1 0 0 1 90.7637 71.2759)" fill="#F2D345"/>
<rect width="5.67273" height="7.31035" transform="matrix(-1 0 0 1 85.0909 78.5862)" fill="#F2D345"/>
<rect width="9.45454" height="7.31035" transform="matrix(-1 0 0 1 81.3091 82.2414)" fill="#F2D345"/>
<rect width="9.45454" height="7.31034" transform="matrix(-1 0 0 1 77.5272 85.8965)" fill="#F2D345"/>
<rect width="7.56364" height="9.13792" transform="matrix(-1 0 0 1 69.9636 89.5517)" fill="#F2D345"/>
<rect width="7.56364" height="9.13793" transform="matrix(-1 0 0 1 62.4 93.2069)" fill="#F2D345"/>
<rect x="43.491" y="23.7586" width="9.45454" height="7.31034" fill="#FFEC8C"/>
<rect x="41.6" y="25.5862" width="1.89091" height="9.13793" fill="#FFEC8C"/>
<rect x="32.1455" y="34.7241" width="5.67273" height="1.82759" fill="#FFEC8C"/>
<rect x="30.2545" y="34.7241" width="1.89091" height="3.65517" fill="#FFEC8C"/>
<rect x="28.3636" y="36.5517" width="1.89091" height="5.48276" fill="#FFEC8C"/>
<rect x="26.4728" y="40.2069" width="3.78182" height="7.31034" fill="#FFEC8C"/>
<rect x="24.5818" y="45.6897" width="5.67273" height="9.13793" fill="#FFEC8C"/>
<rect x="24.5818" y="54.8276" width="5.67273" height="1.82759" fill="#FFEC8C"/>
<rect x="24.5818" y="56.6552" width="5.67273" height="7.31034" fill="#FFEC8C"/>
<rect x="24.5818" y="60.3103" width="5.67273" height="7.31034" fill="#FFEC8C"/>
<rect x="28.3636" y="67.6207" width="1.89091" height="3.65517" fill="#FFEC8C"/>
<rect x="30.2545" y="71.2759" width="3.78182" height="1.82758" fill="#FFEC8C"/>
<rect x="32.1455" y="73.1035" width="7.56364" height="1.82759" fill="#FFEC8C"/>
<rect x="41.6" y="74.931" width="1.89091" height="5.48276" fill="#FFEC8C"/>
<rect x="43.491" y="76.7586" width="9.45454" height="7.31034" fill="#FFEC8C"/>
<rect width="7.56364" height="7.31034" transform="matrix(-1 0 0 1 60.509 23.7586)" fill="#FFEC8C"/>
<rect width="1.89091" height="9.13793" transform="matrix(-1 0 0 1 62.4 25.5862)" fill="#FFEC8C"/>
<rect width="5.67273" height="1.82759" transform="matrix(-1 0 0 1 71.8545 34.7241)" fill="#FFEC8C"/>
<rect width="1.89091" height="3.65517" transform="matrix(-1 0 0 1 73.7455 34.7241)" fill="#FFEC8C"/>
<rect width="1.89091" height="5.48276" transform="matrix(-1 0 0 1 75.6364 36.5517)" fill="#FFEC8C"/>
<rect width="3.78182" height="7.31034" transform="matrix(-1 0 0 1 77.5272 40.2069)" fill="#FFEC8C"/>
<rect width="5.67273" height="9.13793" transform="matrix(-1 0 0 1 79.4182 45.6897)" fill="#FFEC8C"/>
<rect width="5.67273" height="1.82759" transform="matrix(-1 0 0 1 79.4182 54.8276)" fill="#FFEC8C"/>
<rect width="5.67273" height="7.31034" transform="matrix(-1 0 0 1 79.4182 56.6552)" fill="#FFEC8C"/>
<rect width="5.67273" height="7.31034" transform="matrix(-1 0 0 1 79.4182 60.3103)" fill="#FFEC8C"/>
<rect width="1.89091" height="3.65517" transform="matrix(-1 0 0 1 75.6364 67.6207)" fill="#FFEC8C"/>
<rect width="3.78181" height="1.82758" transform="matrix(-1 0 0 1 73.7455 71.2759)" fill="#FFEC8C"/>
<rect width="7.56364" height="1.82759" transform="matrix(-1 0 0 1 71.8545 73.1035)" fill="#FFEC8C"/>
<rect width="3.78182" height="5.48276" transform="matrix(-1 0 0 1 64.2909 74.931)" fill="#FFEC8C"/>
<rect width="7.56364" height="7.31034" transform="matrix(-1 0 0 1 60.509 76.7586)" fill="#FFEC8C"/>
<rect x="47.0525" y="33.2791" width="16.1553" height="6.51495" fill="#8F510A"/>
<rect x="48.668" y="34.9078" width="16.1553" height="6.51495" fill="#8F510A"/>
<rect x="40.5903" y="34.9078" width="16.1553" height="6.51495" fill="#8F510A"/>
<rect x="51.899" y="70.74" width="17.7709" height="8.14368" fill="#8F510A"/>
<rect x="37.3593" y="41.4227" width="8.07767" height="8.14369" fill="#A86D2A"/>
<rect x="40.5903" y="36.5365" width="8.07767" height="8.14369" fill="#A86D2A"/>
<rect x="47.0525" y="34.9078" width="8.07767" height="8.14369" fill="#A86D2A"/>
<rect x="55.1301" y="34.9078" width="8.07767" height="8.14369" fill="#A86D2A"/>
<rect x="58.3612" y="38.1653" width="8.07767" height="8.14369" fill="#A86D2A"/>
<rect x="59.9767" y="44.6802" width="8.07767" height="8.14369" fill="#A86D2A"/>
<rect x="59.9767" y="51.1952" width="8.07767" height="8.14369" fill="#A86D2A"/>
<rect x="55.1301" y="54.4526" width="8.07767" height="8.14369" fill="#A86D2A"/>
<rect x="50.2836" y="57.7101" width="8.07767" height="8.14369" fill="#A86D2A"/>
<rect x="45.4369" y="60.9676" width="8.07767" height="8.14369" fill="#A86D2A"/>
<rect x="40.5903" y="65.8538" width="8.07767" height="8.14369" fill="#A86D2A"/>
<rect x="37.3593" y="41.4227" width="8.07767" height="8.14369" fill="#A86D2A"/>
<rect x="40.5903" y="69.1113" width="11.3087" height="9.77243" fill="#A86D2A"/>
<rect x="47.0525" y="72.3687" width="8.07767" height="6.51495" fill="#A86D2A"/>
<rect x="55.1301" y="72.3687" width="8.07767" height="6.51495" fill="#A86D2A"/>
<rect x="61.5923" y="72.3687" width="8.07767" height="6.51495" fill="#A86D2A"/>
</svg>
